<mxfile host="app.diagrams.net" agent="Mozilla/5.0 (Windows NT 10.0; Win64; x64) AppleWebKit/537.36 (KHTML, like Gecko) Chrome/141.0.0.0 Safari/537.36 Edg/141.0.0.0" version="28.2.7">
  <diagram name="Page-1" id="94e6lY1ZMRM96aZTfTbc">
    <mxGraphModel dx="903" dy="508" grid="1" gridSize="10" guides="1" tooltips="1" connect="1" arrows="1" fold="1" page="1" pageScale="1" pageWidth="827" pageHeight="1169" math="0" shadow="0">
      <root>
        <mxCell id="0" />
        <mxCell id="1" parent="0" />
        <mxCell id="-KUxn2SXB9C2YqueNw4e-1" value="&lt;span style=&quot;color: rgb(36, 36, 36); font-family: &amp;quot;Cascadia Mono&amp;quot;, Consolas, ui-monospace, Menlo, Monaco, monospace; font-size: 14px; font-style: normal; font-variant-ligatures: normal; font-variant-caps: normal; font-weight: 400; letter-spacing: normal; orphans: 2; text-align: start; text-indent: 0px; text-transform: none; widows: 2; word-spacing: 0px; -webkit-text-stroke-width: 0px; white-space: pre; background-color: rgb(255, 255, 255); text-decoration-thickness: initial; text-decoration-style: initial; text-decoration-color: initial; display: inline !important; float: none;&quot;&gt;[&amp;nbsp;1472.711885]&amp;nbsp;hv_pci&amp;nbsp;05aff666-c51f-4713-8836-7f0dfa97d2cc:&amp;nbsp;hv_irq_retarget_interrupt()&amp;nbsp;failed:&amp;nbsp;0x5&lt;/span&gt;&lt;br style=&quot;box-sizing: border-box; -webkit-font-smoothing: antialiased; color: rgb(36, 36, 36); font-family: &amp;quot;Cascadia Mono&amp;quot;, Consolas, ui-monospace, Menlo, Monaco, monospace; font-size: 14px; font-style: normal; font-variant-ligatures: normal; font-variant-caps: normal; font-weight: 400; letter-spacing: normal; orphans: 2; text-align: start; text-indent: 0px; text-transform: none; widows: 2; word-spacing: 0px; -webkit-text-stroke-width: 0px; white-space: pre; background-color: rgb(255, 255, 255); text-decoration-thickness: initial; text-decoration-style: initial; text-decoration-color: initial;&quot;&gt;&lt;span style=&quot;color: rgb(36, 36, 36); font-family: &amp;quot;Cascadia Mono&amp;quot;, Consolas, ui-monospace, Menlo, Monaco, monospace; font-size: 14px; font-style: normal; font-variant-ligatures: normal; font-variant-caps: normal; font-weight: 400; letter-spacing: normal; orphans: 2; text-align: start; text-indent: 0px; text-transform: none; widows: 2; word-spacing: 0px; -webkit-text-stroke-width: 0px; white-space: pre; background-color: rgb(255, 255, 255); text-decoration-thickness: initial; text-decoration-style: initial; text-decoration-color: initial; display: inline !important; float: none;&quot;&gt;[&amp;nbsp;1472.713742]&amp;nbsp;hv_do_map_gpa_hcall:&amp;nbsp;map&amp;nbsp;pages&amp;nbsp;failed&amp;nbsp;0/2.&amp;nbsp;status:0x8&amp;nbsp;HV_STATUS_OPERATION_DENIED&lt;/span&gt;" style="text;whiteSpace=wrap;html=1;" vertex="1" parent="1">
          <mxGeometry x="60" y="220" width="560" height="60" as="geometry" />
        </mxCell>
        <mxCell id="-KUxn2SXB9C2YqueNw4e-2" value="&lt;b&gt;Problem 1: IRQ remapping&lt;/b&gt;&lt;br&gt;&lt;br&gt;&lt;b&gt;QEMU &lt;/b&gt;L1VH Guest&lt;b&gt; &lt;/b&gt;with &lt;b&gt;NVMe &lt;/b&gt;PT on &lt;b&gt;Azure (&lt;/b&gt;drivers/pci/controller/pci-hyperv.c:755&lt;b&gt;)&lt;/b&gt;&lt;br&gt;&lt;br&gt;Host:" style="text;html=1;whiteSpace=wrap;strokeColor=none;fillColor=none;align=left;verticalAlign=middle;rounded=0;" vertex="1" parent="1">
          <mxGeometry x="60" y="150" width="690" height="80" as="geometry" />
        </mxCell>
        <mxCell id="-KUxn2SXB9C2YqueNw4e-3" value="&lt;b&gt;Problem 2:&amp;nbsp; Teardown fails (VFIO device gets in unhealthy state)&lt;br&gt;&lt;br&gt;QEMU &lt;/b&gt;L1VH Guest with &lt;b&gt;NVMe &lt;/b&gt;PT on &lt;b&gt;Azure&lt;/b&gt;&lt;br&gt;&lt;br&gt;Host:" style="text;html=1;whiteSpace=wrap;strokeColor=none;fillColor=none;align=left;verticalAlign=middle;rounded=0;" vertex="1" parent="1">
          <mxGeometry x="60" y="390" width="690" height="80" as="geometry" />
        </mxCell>
        <mxCell id="-KUxn2SXB9C2YqueNw4e-4" value="&lt;span style=&quot;color: rgb(36, 36, 36); font-family: &amp;quot;Cascadia Mono&amp;quot;, Consolas, ui-monospace, Menlo, Monaco, monospace; font-size: 14px; font-style: normal; font-variant-ligatures: normal; font-variant-caps: normal; font-weight: 400; letter-spacing: normal; orphans: 2; text-align: start; text-indent: 0px; text-transform: none; widows: 2; word-spacing: 0px; -webkit-text-stroke-width: 0px; white-space: pre; background-color: rgb(255, 255, 255); text-decoration-thickness: initial; text-decoration-style: initial; text-decoration-color: initial; display: inline !important; float: none;&quot;&gt;[&amp;nbsp;2772.664025]&amp;nbsp;hv_call_finalize_partition:&amp;nbsp;Unknown&lt;/span&gt;&lt;br style=&quot;box-sizing: border-box; -webkit-font-smoothing: antialiased; color: rgb(36, 36, 36); font-family: &amp;quot;Cascadia Mono&amp;quot;, Consolas, ui-monospace, Menlo, Monaco, monospace; font-size: 14px; font-style: normal; font-variant-ligatures: normal; font-variant-caps: normal; font-weight: 400; letter-spacing: normal; orphans: 2; text-align: start; text-indent: 0px; text-transform: none; widows: 2; word-spacing: 0px; -webkit-text-stroke-width: 0px; white-space: pre; background-color: rgb(255, 255, 255); text-decoration-thickness: initial; text-decoration-style: initial; text-decoration-color: initial;&quot;&gt;&lt;span style=&quot;color: rgb(36, 36, 36); font-family: &amp;quot;Cascadia Mono&amp;quot;, Consolas, ui-monospace, Menlo, Monaco, monospace; font-size: 14px; font-style: normal; font-variant-ligatures: normal; font-variant-caps: normal; font-weight: 400; letter-spacing: normal; orphans: 2; text-align: start; text-indent: 0px; text-transform: none; widows: 2; word-spacing: 0px; -webkit-text-stroke-width: 0px; white-space: pre; background-color: rgb(255, 255, 255); text-decoration-thickness: initial; text-decoration-style: initial; text-decoration-color: initial; display: inline !important; float: none;&quot;&gt;[&amp;nbsp;2772.678592]&amp;nbsp;hv_call_delete_partition:&amp;nbsp;HV_STATUS_INVALID_PARTITION_STATE&lt;/span&gt;&lt;br style=&quot;box-sizing: border-box; -webkit-font-smoothing: antialiased; color: rgb(36, 36, 36); font-family: &amp;quot;Cascadia Mono&amp;quot;, Consolas, ui-monospace, Menlo, Monaco, monospace; font-size: 14px; font-style: normal; font-variant-ligatures: normal; font-variant-caps: normal; font-weight: 400; letter-spacing: normal; orphans: 2; text-align: start; text-indent: 0px; text-transform: none; widows: 2; word-spacing: 0px; -webkit-text-stroke-width: 0px; white-space: pre; background-color: rgb(255, 255, 255); text-decoration-thickness: initial; text-decoration-style: initial; text-decoration-color: initial;&quot;&gt;&lt;span style=&quot;color: rgb(36, 36, 36); font-family: &amp;quot;Cascadia Mono&amp;quot;, Consolas, ui-monospace, Menlo, Monaco, monospace; font-size: 14px; font-style: normal; font-variant-ligatures: normal; font-variant-caps: normal; font-weight: 400; letter-spacing: normal; orphans: 2; text-align: start; text-indent: 0px; text-transform: none; widows: 2; word-spacing: 0px; -webkit-text-stroke-width: 0px; white-space: pre; background-color: rgb(255, 255, 255); text-decoration-thickness: initial; text-decoration-style: initial; text-decoration-color: initial; display: inline !important; float: none;&quot;&gt;[&amp;nbsp;2772.679167]&amp;nbsp;hv_iommu_det_dev_from_guest:&amp;nbsp;hypercall&amp;nbsp;failed,&amp;nbsp;status&amp;nbsp;0xd&lt;/span&gt;&lt;br style=&quot;box-sizing: border-box; -webkit-font-smoothing: antialiased; color: rgb(36, 36, 36); font-family: &amp;quot;Cascadia Mono&amp;quot;, Consolas, ui-monospace, Menlo, Monaco, monospace; font-size: 14px; font-style: normal; font-variant-ligatures: normal; font-variant-caps: normal; font-weight: 400; letter-spacing: normal; orphans: 2; text-align: start; text-indent: 0px; text-transform: none; widows: 2; word-spacing: 0px; -webkit-text-stroke-width: 0px; white-space: pre; background-color: rgb(255, 255, 255); text-decoration-thickness: initial; text-decoration-style: initial; text-decoration-color: initial;&quot;&gt;&lt;span style=&quot;color: rgb(36, 36, 36); font-family: &amp;quot;Cascadia Mono&amp;quot;, Consolas, ui-monospace, Menlo, Monaco, monospace; font-size: 14px; font-style: normal; font-variant-ligatures: normal; font-variant-caps: normal; font-weight: 400; letter-spacing: normal; orphans: 2; text-align: start; text-indent: 0px; text-transform: none; widows: 2; word-spacing: 0px; -webkit-text-stroke-width: 0px; white-space: pre; background-color: rgb(255, 255, 255); text-decoration-thickness: initial; text-decoration-style: initial; text-decoration-color: initial; display: inline !important; float: none;&quot;&gt;[&amp;nbsp;2772.731255]&amp;nbsp;hv_iommu_domain_free:&amp;nbsp;hypercall&amp;nbsp;failed,&amp;nbsp;status&amp;nbsp;0x6&lt;/span&gt;" style="text;whiteSpace=wrap;html=1;" vertex="1" parent="1">
          <mxGeometry x="60" y="470" width="560" height="90" as="geometry" />
        </mxCell>
        <mxCell id="-KUxn2SXB9C2YqueNw4e-5" value="&lt;span style=&quot;color: rgb(36, 36, 36); font-family: &amp;quot;Cascadia Mono&amp;quot;, Consolas, ui-monospace, Menlo, Monaco, monospace; font-size: 14px; font-style: normal; font-variant-ligatures: normal; font-variant-caps: normal; font-weight: 400; letter-spacing: normal; orphans: 2; text-align: start; text-indent: 0px; text-transform: none; widows: 2; word-spacing: 0px; -webkit-text-stroke-width: 0px; white-space: pre; background-color: rgb(255, 255, 255); text-decoration-thickness: initial; text-decoration-style: initial; text-decoration-color: initial; display: inline !important; float: none;&quot;&gt;[&amp;nbsp;&amp;nbsp;&amp;nbsp;&amp;nbsp;5.481014]&amp;nbsp;nvme&amp;nbsp;nvme0:&amp;nbsp;pci&amp;nbsp;&lt;/span&gt;&lt;span class=&quot;hljs-keyword&quot; style=&quot;box-sizing: border-box; -webkit-font-smoothing: antialiased; color: rgb(79, 82, 178); font-family: &amp;quot;Cascadia Mono&amp;quot;, Consolas, ui-monospace, Menlo, Monaco, monospace; font-size: 14px; font-style: normal; font-variant-ligatures: normal; font-variant-caps: normal; font-weight: 400; letter-spacing: normal; orphans: 2; text-align: start; text-indent: 0px; text-transform: none; widows: 2; word-spacing: 0px; -webkit-text-stroke-width: 0px; white-space: pre; background-color: rgb(255, 255, 255); text-decoration-thickness: initial; text-decoration-style: initial; text-decoration-color: initial;&quot;&gt;function&lt;/span&gt;&lt;span style=&quot;color: rgb(36, 36, 36); font-family: &amp;quot;Cascadia Mono&amp;quot;, Consolas, ui-monospace, Menlo, Monaco, monospace; font-size: 14px; font-style: normal; font-variant-ligatures: normal; font-variant-caps: normal; font-weight: 400; letter-spacing: normal; orphans: 2; text-align: start; text-indent: 0px; text-transform: none; widows: 2; word-spacing: 0px; -webkit-text-stroke-width: 0px; white-space: pre; background-color: rgb(255, 255, 255); text-decoration-thickness: initial; text-decoration-style: initial; text-decoration-color: initial; display: inline !important; float: none;&quot;&gt;&amp;nbsp;0000:00:05.0&lt;/span&gt;&lt;br style=&quot;box-sizing: border-box; -webkit-font-smoothing: antialiased; color: rgb(36, 36, 36); font-family: &amp;quot;Cascadia Mono&amp;quot;, Consolas, ui-monospace, Menlo, Monaco, monospace; font-size: 14px; font-style: normal; font-variant-ligatures: normal; font-variant-caps: normal; font-weight: 400; letter-spacing: normal; orphans: 2; text-align: start; text-indent: 0px; text-transform: none; widows: 2; word-spacing: 0px; -webkit-text-stroke-width: 0px; white-space: pre; background-color: rgb(255, 255, 255); text-decoration-thickness: initial; text-decoration-style: initial; text-decoration-color: initial;&quot;&gt;&lt;span style=&quot;color: rgb(36, 36, 36); font-family: &amp;quot;Cascadia Mono&amp;quot;, Consolas, ui-monospace, Menlo, Monaco, monospace; font-size: 14px; font-style: normal; font-variant-ligatures: normal; font-variant-caps: normal; font-weight: 400; letter-spacing: normal; orphans: 2; text-align: start; text-indent: 0px; text-transform: none; widows: 2; word-spacing: 0px; -webkit-text-stroke-width: 0px; white-space: pre; background-color: rgb(255, 255, 255); text-decoration-thickness: initial; text-decoration-style: initial; text-decoration-color: initial; display: inline !important; float: none;&quot;&gt;[&amp;nbsp;&amp;nbsp;&amp;nbsp;66.122811]&amp;nbsp;nvme&amp;nbsp;nvme0:&amp;nbsp;I/O&amp;nbsp;16&amp;nbsp;QID&amp;nbsp;0&amp;nbsp;&lt;/span&gt;&lt;span class=&quot;hljs-function&quot; style=&quot;box-sizing: border-box; -webkit-font-smoothing: antialiased; color: rgb(188, 47, 50); font-family: &amp;quot;Cascadia Mono&amp;quot;, Consolas, ui-monospace, Menlo, Monaco, monospace; font-size: 14px; font-style: normal; font-variant-ligatures: normal; font-variant-caps: normal; font-weight: 400; letter-spacing: normal; orphans: 2; text-align: start; text-indent: 0px; text-transform: none; widows: 2; word-spacing: 0px; -webkit-text-stroke-width: 0px; white-space: pre; background-color: rgb(255, 255, 255); text-decoration-thickness: initial; text-decoration-style: initial; text-decoration-color: initial;&quot;&gt;timeout&lt;/span&gt;&lt;span style=&quot;color: rgb(36, 36, 36); font-family: &amp;quot;Cascadia Mono&amp;quot;, Consolas, ui-monospace, Menlo, Monaco, monospace; font-size: 14px; font-style: normal; font-variant-ligatures: normal; font-variant-caps: normal; font-weight: 400; letter-spacing: normal; orphans: 2; text-align: start; text-indent: 0px; text-transform: none; widows: 2; word-spacing: 0px; -webkit-text-stroke-width: 0px; white-space: pre; background-color: rgb(255, 255, 255); text-decoration-thickness: initial; text-decoration-style: initial; text-decoration-color: initial; display: inline !important; float: none;&quot;&gt;,&amp;nbsp;&lt;/span&gt;&lt;span class=&quot;hljs-function&quot; style=&quot;box-sizing: border-box; -webkit-font-smoothing: antialiased; color: rgb(188, 47, 50); font-family: &amp;quot;Cascadia Mono&amp;quot;, Consolas, ui-monospace, Menlo, Monaco, monospace; font-size: 14px; font-style: normal; font-variant-ligatures: normal; font-variant-caps: normal; font-weight: 400; letter-spacing: normal; orphans: 2; text-align: start; text-indent: 0px; text-transform: none; widows: 2; word-spacing: 0px; -webkit-text-stroke-width: 0px; white-space: pre; background-color: rgb(255, 255, 255); text-decoration-thickness: initial; text-decoration-style: initial; text-decoration-color: initial;&quot;&gt;disable&lt;/span&gt;&lt;span style=&quot;color: rgb(36, 36, 36); font-family: &amp;quot;Cascadia Mono&amp;quot;, Consolas, ui-monospace, Menlo, Monaco, monospace; font-size: 14px; font-style: normal; font-variant-ligatures: normal; font-variant-caps: normal; font-weight: 400; letter-spacing: normal; orphans: 2; text-align: start; text-indent: 0px; text-transform: none; widows: 2; word-spacing: 0px; -webkit-text-stroke-width: 0px; white-space: pre; background-color: rgb(255, 255, 255); text-decoration-thickness: initial; text-decoration-style: initial; text-decoration-color: initial; display: inline !important; float: none;&quot;&gt;&amp;nbsp;controller&lt;/span&gt;&lt;br style=&quot;box-sizing: border-box; -webkit-font-smoothing: antialiased; color: rgb(36, 36, 36); font-family: &amp;quot;Cascadia Mono&amp;quot;, Consolas, ui-monospace, Menlo, Monaco, monospace; font-size: 14px; font-style: normal; font-variant-ligatures: normal; font-variant-caps: normal; font-weight: 400; letter-spacing: normal; orphans: 2; text-align: start; text-indent: 0px; text-transform: none; widows: 2; word-spacing: 0px; -webkit-text-stroke-width: 0px; white-space: pre; background-color: rgb(255, 255, 255); text-decoration-thickness: initial; text-decoration-style: initial; text-decoration-color: initial;&quot;&gt;&lt;span style=&quot;color: rgb(36, 36, 36); font-family: &amp;quot;Cascadia Mono&amp;quot;, Consolas, ui-monospace, Menlo, Monaco, monospace; font-size: 14px; font-style: normal; font-variant-ligatures: normal; font-variant-caps: normal; font-weight: 400; letter-spacing: normal; orphans: 2; text-align: start; text-indent: 0px; text-transform: none; widows: 2; word-spacing: 0px; -webkit-text-stroke-width: 0px; white-space: pre; background-color: rgb(255, 255, 255); text-decoration-thickness: initial; text-decoration-style: initial; text-decoration-color: initial; display: inline !important; float: none;&quot;&gt;[&amp;nbsp;&amp;nbsp;&amp;nbsp;66.161107]&amp;nbsp;nvme&amp;nbsp;nvme0:&amp;nbsp;Identify&amp;nbsp;Controller&amp;nbsp;failed&amp;nbsp;(-4)&lt;/span&gt;&lt;br style=&quot;box-sizing: border-box; -webkit-font-smoothing: antialiased; color: rgb(36, 36, 36); font-family: &amp;quot;Cascadia Mono&amp;quot;, Consolas, ui-monospace, Menlo, Monaco, monospace; font-size: 14px; font-style: normal; font-variant-ligatures: normal; font-variant-caps: normal; font-weight: 400; letter-spacing: normal; orphans: 2; text-align: start; text-indent: 0px; text-transform: none; widows: 2; word-spacing: 0px; -webkit-text-stroke-width: 0px; white-space: pre; background-color: rgb(255, 255, 255); text-decoration-thickness: initial; text-decoration-style: initial; text-decoration-color: initial;&quot;&gt;&lt;span style=&quot;color: rgb(36, 36, 36); font-family: &amp;quot;Cascadia Mono&amp;quot;, Consolas, ui-monospace, Menlo, Monaco, monospace; font-size: 14px; font-style: normal; font-variant-ligatures: normal; font-variant-caps: normal; font-weight: 400; letter-spacing: normal; orphans: 2; text-align: start; text-indent: 0px; text-transform: none; widows: 2; word-spacing: 0px; -webkit-text-stroke-width: 0px; white-space: pre; background-color: rgb(255, 255, 255); text-decoration-thickness: initial; text-decoration-style: initial; text-decoration-color: initial; display: inline !important; float: none;&quot;&gt;[&amp;nbsp;&amp;nbsp;&amp;nbsp;66.179362]&amp;nbsp;nvme&amp;nbsp;nvme0:&amp;nbsp;Removing&amp;nbsp;after&amp;nbsp;probe&amp;nbsp;failure&amp;nbsp;status:&amp;nbsp;-5&lt;/span&gt;" style="text;whiteSpace=wrap;html=1;" vertex="1" parent="1">
          <mxGeometry x="60" y="300" width="560" height="90" as="geometry" />
        </mxCell>
        <mxCell id="-KUxn2SXB9C2YqueNw4e-6" value="Guest:" style="text;html=1;whiteSpace=wrap;strokeColor=none;fillColor=none;align=left;verticalAlign=middle;rounded=0;" vertex="1" parent="1">
          <mxGeometry x="60" y="270" width="690" height="30" as="geometry" />
        </mxCell>
        <mxCell id="-KUxn2SXB9C2YqueNw4e-7" value="&lt;b&gt;Problem 3:&amp;nbsp; State page problem on CH 48&lt;br&gt;&lt;br&gt;CH &lt;/b&gt;L1VH Guest with &lt;b&gt;NVMe PT &lt;/b&gt;on Azure (hyper-v)&lt;br&gt;&lt;br&gt;Host:" style="text;html=1;whiteSpace=wrap;strokeColor=none;fillColor=none;align=left;verticalAlign=middle;rounded=0;" vertex="1" parent="1">
          <mxGeometry x="60" y="560" width="690" height="80" as="geometry" />
        </mxCell>
        <UserObject label="&lt;span style=&quot;color: rgb(36, 36, 36); font-family: &amp;quot;Cascadia Mono&amp;quot;, Consolas, ui-monospace, Menlo, Monaco, monospace; font-size: 14px; font-style: normal; font-variant-ligatures: normal; font-variant-caps: normal; font-weight: 400; letter-spacing: normal; orphans: 2; text-align: start; text-indent: 0px; text-transform: none; widows: 2; word-spacing: 0px; -webkit-text-stroke-width: 0px; white-space: pre; background-color: rgb(255, 255, 255); text-decoration-thickness: initial; text-decoration-style: initial; text-decoration-color: initial; display: inline !important; float: none;&quot;&gt;[&amp;nbsp;&amp;nbsp;809.119887]&amp;nbsp;rcu:&amp;nbsp;INFO:&amp;nbsp;rcu_sched&amp;nbsp;self-detected&amp;nbsp;stall&amp;nbsp;on&amp;nbsp;CPU&lt;/span&gt;&lt;br style=&quot;box-sizing: border-box; -webkit-font-smoothing: antialiased; color: rgb(36, 36, 36); font-family: &amp;quot;Cascadia Mono&amp;quot;, Consolas, ui-monospace, Menlo, Monaco, monospace; font-size: 14px; font-style: normal; font-variant-ligatures: normal; font-variant-caps: normal; font-weight: 400; letter-spacing: normal; orphans: 2; text-align: start; text-indent: 0px; text-transform: none; widows: 2; word-spacing: 0px; -webkit-text-stroke-width: 0px; white-space: pre; background-color: rgb(255, 255, 255); text-decoration-thickness: initial; text-decoration-style: initial; text-decoration-color: initial;&quot;&gt;&lt;span style=&quot;color: rgb(36, 36, 36); font-family: &amp;quot;Cascadia Mono&amp;quot;, Consolas, ui-monospace, Menlo, Monaco, monospace; font-size: 14px; font-style: normal; font-variant-ligatures: normal; font-variant-caps: normal; font-weight: 400; letter-spacing: normal; orphans: 2; text-align: start; text-indent: 0px; text-transform: none; widows: 2; word-spacing: 0px; -webkit-text-stroke-width: 0px; white-space: pre; background-color: rgb(255, 255, 255); text-decoration-thickness: initial; text-decoration-style: initial; text-decoration-color: initial; display: inline !important; float: none;&quot;&gt;[&amp;nbsp;&amp;nbsp;809.120388]&amp;nbsp;rcu:&amp;nbsp;&amp;nbsp;&amp;nbsp;&amp;nbsp;&amp;nbsp;67-....:&amp;nbsp;(14999&amp;nbsp;ticks&amp;nbsp;this&amp;nbsp;GP)&amp;nbsp;idle=9e3c/1/0x4000000000000000&amp;nbsp;softirq=764/764&amp;nbsp;fqs=7491&lt;/span&gt;&lt;br style=&quot;box-sizing: border-box; -webkit-font-smoothing: antialiased; color: rgb(36, 36, 36); font-family: &amp;quot;Cascadia Mono&amp;quot;, Consolas, ui-monospace, Menlo, Monaco, monospace; font-size: 14px; font-style: normal; font-variant-ligatures: normal; font-variant-caps: normal; font-weight: 400; letter-spacing: normal; orphans: 2; text-align: start; text-indent: 0px; text-transform: none; widows: 2; word-spacing: 0px; -webkit-text-stroke-width: 0px; white-space: pre; background-color: rgb(255, 255, 255); text-decoration-thickness: initial; text-decoration-style: initial; text-decoration-color: initial;&quot;&gt;&lt;span style=&quot;color: rgb(36, 36, 36); font-family: &amp;quot;Cascadia Mono&amp;quot;, Consolas, ui-monospace, Menlo, Monaco, monospace; font-size: 14px; font-style: normal; font-variant-ligatures: normal; font-variant-caps: normal; font-weight: 400; letter-spacing: normal; orphans: 2; text-align: start; text-indent: 0px; text-transform: none; widows: 2; word-spacing: 0px; -webkit-text-stroke-width: 0px; white-space: pre; background-color: rgb(255, 255, 255); text-decoration-thickness: initial; text-decoration-style: initial; text-decoration-color: initial; display: inline !important; float: none;&quot;&gt;[&amp;nbsp;&amp;nbsp;809.121040]&amp;nbsp;rcu:&amp;nbsp;&amp;nbsp;&amp;nbsp;&amp;nbsp;&amp;nbsp;(t=15000&amp;nbsp;jiffies&amp;nbsp;g=19453&amp;nbsp;q=793&amp;nbsp;ncpus=192)&lt;/span&gt;&lt;br style=&quot;box-sizing: border-box; -webkit-font-smoothing: antialiased; color: rgb(36, 36, 36); font-family: &amp;quot;Cascadia Mono&amp;quot;, Consolas, ui-monospace, Menlo, Monaco, monospace; font-size: 14px; font-style: normal; font-variant-ligatures: normal; font-variant-caps: normal; font-weight: 400; letter-spacing: normal; orphans: 2; text-align: start; text-indent: 0px; text-transform: none; widows: 2; word-spacing: 0px; -webkit-text-stroke-width: 0px; white-space: pre; background-color: rgb(255, 255, 255); text-decoration-thickness: initial; text-decoration-style: initial; text-decoration-color: initial;&quot;&gt;&lt;span style=&quot;color: rgb(36, 36, 36); font-family: &amp;quot;Cascadia Mono&amp;quot;, Consolas, ui-monospace, Menlo, Monaco, monospace; font-size: 14px; font-style: normal; font-variant-ligatures: normal; font-variant-caps: normal; font-weight: 400; letter-spacing: normal; orphans: 2; text-align: start; text-indent: 0px; text-transform: none; widows: 2; word-spacing: 0px; -webkit-text-stroke-width: 0px; white-space: pre; background-color: rgb(255, 255, 255); text-decoration-thickness: initial; text-decoration-style: initial; text-decoration-color: initial; display: inline !important; float: none;&quot;&gt;[&amp;nbsp;&amp;nbsp;809.121388]&amp;nbsp;CPU:&amp;nbsp;67&amp;nbsp;PID:&amp;nbsp;4198&amp;nbsp;Comm:&amp;nbsp;vmm&amp;nbsp;Not&amp;nbsp;tainted&amp;nbsp;6.6.101.mshv1-mgns2&amp;nbsp;&lt;/span&gt;&lt;span class=&quot;hljs-comment&quot; style=&quot;box-sizing: border-box; -webkit-font-smoothing: antialiased; color: rgb(112, 112, 112); font-family: &amp;quot;Cascadia Mono&amp;quot;, Consolas, ui-monospace, Menlo, Monaco, monospace; font-size: 14px; font-style: normal; font-variant-ligatures: normal; font-variant-caps: normal; font-weight: 400; letter-spacing: normal; orphans: 2; text-align: start; text-indent: 0px; text-transform: none; widows: 2; word-spacing: 0px; -webkit-text-stroke-width: 0px; white-space: pre; background-color: rgb(255, 255, 255); text-decoration-thickness: initial; text-decoration-style: initial; text-decoration-color: initial;&quot;&gt;#31&lt;/span&gt;&lt;br style=&quot;box-sizing: border-box; -webkit-font-smoothing: antialiased; color: rgb(36, 36, 36); font-family: &amp;quot;Cascadia Mono&amp;quot;, Consolas, ui-monospace, Menlo, Monaco, monospace; font-size: 14px; font-style: normal; font-variant-ligatures: normal; font-variant-caps: normal; font-weight: 400; letter-spacing: normal; orphans: 2; text-align: start; text-indent: 0px; text-transform: none; widows: 2; word-spacing: 0px; -webkit-text-stroke-width: 0px; white-space: pre; background-color: rgb(255, 255, 255); text-decoration-thickness: initial; text-decoration-style: initial; text-decoration-color: initial;&quot;&gt;&lt;span style=&quot;color: rgb(36, 36, 36); font-family: &amp;quot;Cascadia Mono&amp;quot;, Consolas, ui-monospace, Menlo, Monaco, monospace; font-size: 14px; font-style: normal; font-variant-ligatures: normal; font-variant-caps: normal; font-weight: 400; letter-spacing: normal; orphans: 2; text-align: start; text-indent: 0px; text-transform: none; widows: 2; word-spacing: 0px; -webkit-text-stroke-width: 0px; white-space: pre; background-color: rgb(255, 255, 255); text-decoration-thickness: initial; text-decoration-style: initial; text-decoration-color: initial; display: inline !important; float: none;&quot;&gt;[&amp;nbsp;&amp;nbsp;809.121390]&amp;nbsp;Hardware&amp;nbsp;name:&amp;nbsp;Microsoft&amp;nbsp;Corporation&amp;nbsp;Virtual&amp;nbsp;Machine/Virtual&amp;nbsp;Machine,&amp;nbsp;BIOS&amp;nbsp;Hyper-V&amp;nbsp;UEFI&amp;nbsp;Release&amp;nbsp;v4.1&amp;nbsp;01/28/2025&lt;/span&gt;&lt;br style=&quot;box-sizing: border-box; -webkit-font-smoothing: antialiased; color: rgb(36, 36, 36); font-family: &amp;quot;Cascadia Mono&amp;quot;, Consolas, ui-monospace, Menlo, Monaco, monospace; font-size: 14px; font-style: normal; font-variant-ligatures: normal; font-variant-caps: normal; font-weight: 400; letter-spacing: normal; orphans: 2; text-align: start; text-indent: 0px; text-transform: none; widows: 2; word-spacing: 0px; -webkit-text-stroke-width: 0px; white-space: pre; background-color: rgb(255, 255, 255); text-decoration-thickness: initial; text-decoration-style: initial; text-decoration-color: initial;&quot;&gt;&lt;span style=&quot;color: rgb(36, 36, 36); font-family: &amp;quot;Cascadia Mono&amp;quot;, Consolas, ui-monospace, Menlo, Monaco, monospace; font-size: 14px; font-style: normal; font-variant-ligatures: normal; font-variant-caps: normal; font-weight: 400; letter-spacing: normal; orphans: 2; text-align: start; text-indent: 0px; text-transform: none; widows: 2; word-spacing: 0px; -webkit-text-stroke-width: 0px; white-space: pre; background-color: rgb(255, 255, 255); text-decoration-thickness: initial; text-decoration-style: initial; text-decoration-color: initial; display: inline !important; float: none;&quot;&gt;[&amp;nbsp;&amp;nbsp;809.121392]&amp;nbsp;RIP:&amp;nbsp;0010:hv_call_deposit_pages.part.0+0x2cf/0x3d0&lt;/span&gt;&lt;br style=&quot;box-sizing: border-box; -webkit-font-smoothing: antialiased; color: rgb(36, 36, 36); font-family: &amp;quot;Cascadia Mono&amp;quot;, Consolas, ui-monospace, Menlo, Monaco, monospace; font-size: 14px; font-style: normal; font-variant-ligatures: normal; font-variant-caps: normal; font-weight: 400; letter-spacing: normal; orphans: 2; text-align: start; text-indent: 0px; text-transform: none; widows: 2; word-spacing: 0px; -webkit-text-stroke-width: 0px; white-space: pre; background-color: rgb(255, 255, 255); text-decoration-thickness: initial; text-decoration-style: initial; text-decoration-color: initial;&quot;&gt;&lt;span style=&quot;color: rgb(36, 36, 36); font-family: &amp;quot;Cascadia Mono&amp;quot;, Consolas, ui-monospace, Menlo, Monaco, monospace; font-size: 14px; font-style: normal; font-variant-ligatures: normal; font-variant-caps: normal; font-weight: 400; letter-spacing: normal; orphans: 2; text-align: start; text-indent: 0px; text-transform: none; widows: 2; word-spacing: 0px; -webkit-text-stroke-width: 0px; white-space: pre; background-color: rgb(255, 255, 255); text-decoration-thickness: initial; text-decoration-style: initial; text-decoration-color: initial; display: inline !important; float: none;&quot;&gt;[&amp;nbsp;&amp;nbsp;809.121400]&amp;nbsp;Code:&amp;nbsp;63&amp;nbsp;ff&amp;nbsp;31&amp;nbsp;f6&amp;nbsp;41&amp;nbsp;83&amp;nbsp;c7&amp;nbsp;01&amp;nbsp;48&amp;nbsp;01&amp;nbsp;&lt;/span&gt;&lt;span class=&quot;hljs-function&quot; style=&quot;box-sizing: border-box; -webkit-font-smoothing: antialiased; color: rgb(188, 47, 50); font-family: &amp;quot;Cascadia Mono&amp;quot;, Consolas, ui-monospace, Menlo, Monaco, monospace; font-size: 14px; font-style: normal; font-variant-ligatures: normal; font-variant-caps: normal; font-weight: 400; letter-spacing: normal; orphans: 2; text-align: start; text-indent: 0px; text-transform: none; widows: 2; word-spacing: 0px; -webkit-text-stroke-width: 0px; white-space: pre; background-color: rgb(255, 255, 255); text-decoration-thickness: initial; text-decoration-style: initial; text-decoration-color: initial;&quot;&gt;df&lt;/span&gt;&lt;span style=&quot;color: rgb(36, 36, 36); font-family: &amp;quot;Cascadia Mono&amp;quot;, Consolas, ui-monospace, Menlo, Monaco, monospace; font-size: 14px; font-style: normal; font-variant-ligatures: normal; font-variant-caps: normal; font-weight: 400; letter-spacing: normal; orphans: 2; text-align: start; text-indent: 0px; text-transform: none; widows: 2; word-spacing: 0px; -webkit-text-stroke-width: 0px; white-space: pre; background-color: rgb(255, 255, 255); text-decoration-thickness: initial; text-decoration-style: initial; text-decoration-color: initial; display: inline !important; float: none;&quot;&gt;&amp;nbsp;48&amp;nbsp;c1&amp;nbsp;e7&amp;nbsp;06&amp;nbsp;48&amp;nbsp;01&amp;nbsp;c7&amp;nbsp;e8&amp;nbsp;74&amp;nbsp;c7&amp;nbsp;70&amp;nbsp;ff&amp;nbsp;44&amp;nbsp;3b&amp;nbsp;7d&amp;nbsp;00&amp;nbsp;7c&amp;nbsp;db&amp;nbsp;48&amp;nbsp;83&amp;nbsp;c5&amp;nbsp;04&amp;nbsp;49&amp;nbsp;83&amp;nbsp;c4&amp;nbsp;08&amp;nbsp;49&amp;nbsp;39&amp;nbsp;ee&amp;nbsp;75&amp;nbsp;b0&amp;nbsp;&amp;lt;48&amp;gt;&amp;nbsp;8b&amp;nbsp;3c&amp;nbsp;24&amp;nbsp;31&amp;nbsp;f6&amp;nbsp;e8&amp;nbsp;36&amp;nbsp;c8&amp;nbsp;70&amp;nbsp;ff&amp;nbsp;4c&amp;nbsp;89&amp;nbsp;ef&amp;nbsp;e8&amp;nbsp;3e&amp;nbsp;04&amp;nbsp;6d&amp;nbsp;ff&amp;nbsp;8b&amp;nbsp;44&amp;nbsp;24&lt;/span&gt;&lt;br style=&quot;box-sizing: border-box; -webkit-font-smoothing: antialiased; color: rgb(36, 36, 36); font-family: &amp;quot;Cascadia Mono&amp;quot;, Consolas, ui-monospace, Menlo, Monaco, monospace; font-size: 14px; font-style: normal; font-variant-ligatures: normal; font-variant-caps: normal; font-weight: 400; letter-spacing: normal; orphans: 2; text-align: start; text-indent: 0px; text-transform: none; widows: 2; word-spacing: 0px; -webkit-text-stroke-width: 0px; white-space: pre; background-color: rgb(255, 255, 255); text-decoration-thickness: initial; text-decoration-style: initial; text-decoration-color: initial;&quot;&gt;&lt;span style=&quot;color: rgb(36, 36, 36); font-family: &amp;quot;Cascadia Mono&amp;quot;, Consolas, ui-monospace, Menlo, Monaco, monospace; font-size: 14px; font-style: normal; font-variant-ligatures: normal; font-variant-caps: normal; font-weight: 400; letter-spacing: normal; orphans: 2; text-align: start; text-indent: 0px; text-transform: none; widows: 2; word-spacing: 0px; -webkit-text-stroke-width: 0px; white-space: pre; background-color: rgb(255, 255, 255); text-decoration-thickness: initial; text-decoration-style: initial; text-decoration-color: initial; display: inline !important; float: none;&quot;&gt;[&amp;nbsp;&amp;nbsp;809.121401]&amp;nbsp;RSP:&amp;nbsp;0018:ffffc900213e7d28&amp;nbsp;EFLAGS:&amp;nbsp;00000206&lt;/span&gt;&lt;br style=&quot;box-sizing: border-box; -webkit-font-smoothing: antialiased; color: rgb(36, 36, 36); font-family: &amp;quot;Cascadia Mono&amp;quot;, Consolas, ui-monospace, Menlo, Monaco, monospace; font-size: 14px; font-style: normal; font-variant-ligatures: normal; font-variant-caps: normal; font-weight: 400; letter-spacing: normal; orphans: 2; text-align: start; text-indent: 0px; text-transform: none; widows: 2; word-spacing: 0px; -webkit-text-stroke-width: 0px; white-space: pre; background-color: rgb(255, 255, 255); text-decoration-thickness: initial; text-decoration-style: initial; text-decoration-color: initial;&quot;&gt;&lt;span style=&quot;color: rgb(36, 36, 36); font-family: &amp;quot;Cascadia Mono&amp;quot;, Consolas, ui-monospace, Menlo, Monaco, monospace; font-size: 14px; font-style: normal; font-variant-ligatures: normal; font-variant-caps: normal; font-weight: 400; letter-spacing: normal; orphans: 2; text-align: start; text-indent: 0px; text-transform: none; widows: 2; word-spacing: 0px; -webkit-text-stroke-width: 0px; white-space: pre; background-color: rgb(255, 255, 255); text-decoration-thickness: initial; text-decoration-style: initial; text-decoration-color: initial; display: inline !important; float: none;&quot;&gt;[&amp;nbsp;&amp;nbsp;809.121404]&amp;nbsp;RAX:&amp;nbsp;0000000000000043&amp;nbsp;RBX:&amp;nbsp;ffff88b10814e000&amp;nbsp;RCX:&amp;nbsp;0000000100000048&lt;/span&gt;&lt;br style=&quot;box-sizing: border-box; -webkit-font-smoothing: antialiased; color: rgb(36, 36, 36); font-family: &amp;quot;Cascadia Mono&amp;quot;, Consolas, ui-monospace, Menlo, Monaco, monospace; font-size: 14px; font-style: normal; font-variant-ligatures: normal; font-variant-caps: normal; font-weight: 400; letter-spacing: normal; orphans: 2; text-align: start; text-indent: 0px; text-transform: none; widows: 2; word-spacing: 0px; -webkit-text-stroke-width: 0px; white-space: pre; background-color: rgb(255, 255, 255); text-decoration-thickness: initial; text-decoration-style: initial; text-decoration-color: initial;&quot;&gt;&lt;span style=&quot;color: rgb(36, 36, 36); font-family: &amp;quot;Cascadia Mono&amp;quot;, Consolas, ui-monospace, Menlo, Monaco, monospace; font-size: 14px; font-style: normal; font-variant-ligatures: normal; font-variant-caps: normal; font-weight: 400; letter-spacing: normal; orphans: 2; text-align: start; text-indent: 0px; text-transform: none; widows: 2; word-spacing: 0px; -webkit-text-stroke-width: 0px; white-space: pre; background-color: rgb(255, 255, 255); text-decoration-thickness: initial; text-decoration-style: initial; text-decoration-color: initial; display: inline !important; float: none;&quot;&gt;[&amp;nbsp;&amp;nbsp;809.121405]&amp;nbsp;RDX:&amp;nbsp;0001000000000000&amp;nbsp;RSI:&amp;nbsp;0000000000000000&amp;nbsp;RDI:&amp;nbsp;00000000033931fc&lt;/span&gt;&lt;br style=&quot;box-sizing: border-box; -webkit-font-smoothing: antialiased; color: rgb(36, 36, 36); font-family: &amp;quot;Cascadia Mono&amp;quot;, Consolas, ui-monospace, Menlo, Monaco, monospace; font-size: 14px; font-style: normal; font-variant-ligatures: normal; font-variant-caps: normal; font-weight: 400; letter-spacing: normal; orphans: 2; text-align: start; text-indent: 0px; text-transform: none; widows: 2; word-spacing: 0px; -webkit-text-stroke-width: 0px; white-space: pre; background-color: rgb(255, 255, 255); text-decoration-thickness: initial; text-decoration-style: initial; text-decoration-color: initial;&quot;&gt;&lt;span style=&quot;color: rgb(36, 36, 36); font-family: &amp;quot;Cascadia Mono&amp;quot;, Consolas, ui-monospace, Menlo, Monaco, monospace; font-size: 14px; font-style: normal; font-variant-ligatures: normal; font-variant-caps: normal; font-weight: 400; letter-spacing: normal; orphans: 2; text-align: start; text-indent: 0px; text-transform: none; widows: 2; word-spacing: 0px; -webkit-text-stroke-width: 0px; white-space: pre; background-color: rgb(255, 255, 255); text-decoration-thickness: initial; text-decoration-style: initial; text-decoration-color: initial; display: inline !important; float: none;&quot;&gt;[&amp;nbsp;&amp;nbsp;809.121406]&amp;nbsp;RBP:&amp;nbsp;0001000100000048&amp;nbsp;R08:&amp;nbsp;0000000000000000&amp;nbsp;R09:&amp;nbsp;ffff88b2f2f20008&lt;/span&gt;&lt;br style=&quot;box-sizing: border-box; -webkit-font-smoothing: antialiased; color: rgb(36, 36, 36); font-family: &amp;quot;Cascadia Mono&amp;quot;, Consolas, ui-monospace, Menlo, Monaco, monospace; font-size: 14px; font-style: normal; font-variant-ligatures: normal; font-variant-caps: normal; font-weight: 400; letter-spacing: normal; orphans: 2; text-align: start; text-indent: 0px; text-transform: none; widows: 2; word-spacing: 0px; -webkit-text-stroke-width: 0px; white-space: pre; background-color: rgb(255, 255, 255); text-decoration-thickness: initial; text-decoration-style: initial; text-decoration-color: initial;&quot;&gt;&lt;span style=&quot;color: rgb(36, 36, 36); font-family: &amp;quot;Cascadia Mono&amp;quot;, Consolas, ui-monospace, Menlo, Monaco, monospace; font-size: 14px; font-style: normal; font-variant-ligatures: normal; font-variant-caps: normal; font-weight: 400; letter-spacing: normal; orphans: 2; text-align: start; text-indent: 0px; text-transform: none; widows: 2; word-spacing: 0px; -webkit-text-stroke-width: 0px; white-space: pre; background-color: rgb(255, 255, 255); text-decoration-thickness: initial; text-decoration-style: initial; text-decoration-color: initial; display: inline !important; float: none;&quot;&gt;[&amp;nbsp;&amp;nbsp;809.121406]&amp;nbsp;R10:&amp;nbsp;ffff88b108172004&amp;nbsp;R11:&amp;nbsp;ffffea0000000000&amp;nbsp;R12:&amp;nbsp;0000000000000000&lt;/span&gt;&lt;br style=&quot;box-sizing: border-box; -webkit-font-smoothing: antialiased; color: rgb(36, 36, 36); font-family: &amp;quot;Cascadia Mono&amp;quot;, Consolas, ui-monospace, Menlo, Monaco, monospace; font-size: 14px; font-style: normal; font-variant-ligatures: normal; font-variant-caps: normal; font-weight: 400; letter-spacing: normal; orphans: 2; text-align: start; text-indent: 0px; text-transform: none; widows: 2; word-spacing: 0px; -webkit-text-stroke-width: 0px; white-space: pre; background-color: rgb(255, 255, 255); text-decoration-thickness: initial; text-decoration-style: initial; text-decoration-color: initial;&quot;&gt;&lt;span style=&quot;color: rgb(36, 36, 36); font-family: &amp;quot;Cascadia Mono&amp;quot;, Consolas, ui-monospace, Menlo, Monaco, monospace; font-size: 14px; font-style: normal; font-variant-ligatures: normal; font-variant-caps: normal; font-weight: 400; letter-spacing: normal; orphans: 2; text-align: start; text-indent: 0px; text-transform: none; widows: 2; word-spacing: 0px; -webkit-text-stroke-width: 0px; white-space: pre; background-color: rgb(255, 255, 255); text-decoration-thickness: initial; text-decoration-style: initial; text-decoration-color: initial; display: inline !important; float: none;&quot;&gt;[&amp;nbsp;&amp;nbsp;809.121407]&amp;nbsp;R13:&amp;nbsp;ffff88b108172000&amp;nbsp;R14:&amp;nbsp;0000000000000001&amp;nbsp;R15:&amp;nbsp;0000000000000001&lt;/span&gt;&lt;br style=&quot;box-sizing: border-box; -webkit-font-smoothing: antialiased; color: rgb(36, 36, 36); font-family: &amp;quot;Cascadia Mono&amp;quot;, Consolas, ui-monospace, Menlo, Monaco, monospace; font-size: 14px; font-style: normal; font-variant-ligatures: normal; font-variant-caps: normal; font-weight: 400; letter-spacing: normal; orphans: 2; text-align: start; text-indent: 0px; text-transform: none; widows: 2; word-spacing: 0px; -webkit-text-stroke-width: 0px; white-space: pre; background-color: rgb(255, 255, 255); text-decoration-thickness: initial; text-decoration-style: initial; text-decoration-color: initial;&quot;&gt;&lt;span style=&quot;color: rgb(36, 36, 36); font-family: &amp;quot;Cascadia Mono&amp;quot;, Consolas, ui-monospace, Menlo, Monaco, monospace; font-size: 14px; font-style: normal; font-variant-ligatures: normal; font-variant-caps: normal; font-weight: 400; letter-spacing: normal; orphans: 2; text-align: start; text-indent: 0px; text-transform: none; widows: 2; word-spacing: 0px; -webkit-text-stroke-width: 0px; white-space: pre; background-color: rgb(255, 255, 255); text-decoration-thickness: initial; text-decoration-style: initial; text-decoration-color: initial; display: inline !important; float: none;&quot;&gt;[&amp;nbsp;&amp;nbsp;809.121409]&amp;nbsp;FS:&amp;nbsp;&amp;nbsp;00007864f8fffb38(0000)&amp;nbsp;GS:ffff88e03f6c0000(0000)&amp;nbsp;knlGS:0000000000000000&lt;/span&gt;&lt;br style=&quot;box-sizing: border-box; -webkit-font-smoothing: antialiased; color: rgb(36, 36, 36); font-family: &amp;quot;Cascadia Mono&amp;quot;, Consolas, ui-monospace, Menlo, Monaco, monospace; font-size: 14px; font-style: normal; font-variant-ligatures: normal; font-variant-caps: normal; font-weight: 400; letter-spacing: normal; orphans: 2; text-align: start; text-indent: 0px; text-transform: none; widows: 2; word-spacing: 0px; -webkit-text-stroke-width: 0px; white-space: pre; background-color: rgb(255, 255, 255); text-decoration-thickness: initial; text-decoration-style: initial; text-decoration-color: initial;&quot;&gt;&lt;span style=&quot;color: rgb(36, 36, 36); font-family: &amp;quot;Cascadia Mono&amp;quot;, Consolas, ui-monospace, Menlo, Monaco, monospace; font-size: 14px; font-style: normal; font-variant-ligatures: normal; font-variant-caps: normal; font-weight: 400; letter-spacing: normal; orphans: 2; text-align: start; text-indent: 0px; text-transform: none; widows: 2; word-spacing: 0px; -webkit-text-stroke-width: 0px; white-space: pre; background-color: rgb(255, 255, 255); text-decoration-thickness: initial; text-decoration-style: initial; text-decoration-color: initial; display: inline !important; float: none;&quot;&gt;[&amp;nbsp;&amp;nbsp;809.121410]&amp;nbsp;CS:&amp;nbsp;&amp;nbsp;0010&amp;nbsp;DS:&amp;nbsp;0000&amp;nbsp;ES:&amp;nbsp;0000&amp;nbsp;CR0:&amp;nbsp;0000000080050033&lt;/span&gt;&lt;br style=&quot;box-sizing: border-box; -webkit-font-smoothing: antialiased; color: rgb(36, 36, 36); font-family: &amp;quot;Cascadia Mono&amp;quot;, Consolas, ui-monospace, Menlo, Monaco, monospace; font-size: 14px; font-style: normal; font-variant-ligatures: normal; font-variant-caps: normal; font-weight: 400; letter-spacing: normal; orphans: 2; text-align: start; text-indent: 0px; text-transform: none; widows: 2; word-spacing: 0px; -webkit-text-stroke-width: 0px; white-space: pre; background-color: rgb(255, 255, 255); text-decoration-thickness: initial; text-decoration-style: initial; text-decoration-color: initial;&quot;&gt;&lt;span style=&quot;color: rgb(36, 36, 36); font-family: &amp;quot;Cascadia Mono&amp;quot;, Consolas, ui-monospace, Menlo, Monaco, monospace; font-size: 14px; font-style: normal; font-variant-ligatures: normal; font-variant-caps: normal; font-weight: 400; letter-spacing: normal; orphans: 2; text-align: start; text-indent: 0px; text-transform: none; widows: 2; word-spacing: 0px; -webkit-text-stroke-width: 0px; white-space: pre; background-color: rgb(255, 255, 255); text-decoration-thickness: initial; text-decoration-style: initial; text-decoration-color: initial; display: inline !important; float: none;&quot;&gt;[&amp;nbsp;&amp;nbsp;809.121411]&amp;nbsp;CR2:&amp;nbsp;ffffc9001a5b8668&amp;nbsp;CR3:&amp;nbsp;000000313ecb2005&amp;nbsp;CR4:&amp;nbsp;0000000000370ee0&lt;/span&gt;&lt;br style=&quot;box-sizing: border-box; -webkit-font-smoothing: antialiased; color: rgb(36, 36, 36); font-family: &amp;quot;Cascadia Mono&amp;quot;, Consolas, ui-monospace, Menlo, Monaco, monospace; font-size: 14px; font-style: normal; font-variant-ligatures: normal; font-variant-caps: normal; font-weight: 400; letter-spacing: normal; orphans: 2; text-align: start; text-indent: 0px; text-transform: none; widows: 2; word-spacing: 0px; -webkit-text-stroke-width: 0px; white-space: pre; background-color: rgb(255, 255, 255); text-decoration-thickness: initial; text-decoration-style: initial; text-decoration-color: initial;&quot;&gt;&lt;span style=&quot;color: rgb(36, 36, 36); font-family: &amp;quot;Cascadia Mono&amp;quot;, Consolas, ui-monospace, Menlo, Monaco, monospace; font-size: 14px; font-style: normal; font-variant-ligatures: normal; font-variant-caps: normal; font-weight: 400; letter-spacing: normal; orphans: 2; text-align: start; text-indent: 0px; text-transform: none; widows: 2; word-spacing: 0px; -webkit-text-stroke-width: 0px; white-space: pre; background-color: rgb(255, 255, 255); text-decoration-thickness: initial; text-decoration-style: initial; text-decoration-color: initial; display: inline !important; float: none;&quot;&gt;[&amp;nbsp;&amp;nbsp;809.121412]&amp;nbsp;Call&amp;nbsp;Trace:&lt;/span&gt;&lt;br style=&quot;box-sizing: border-box; -webkit-font-smoothing: antialiased; color: rgb(36, 36, 36); font-family: &amp;quot;Cascadia Mono&amp;quot;, Consolas, ui-monospace, Menlo, Monaco, monospace; font-size: 14px; font-style: normal; font-variant-ligatures: normal; font-variant-caps: normal; font-weight: 400; letter-spacing: normal; orphans: 2; text-align: start; text-indent: 0px; text-transform: none; widows: 2; word-spacing: 0px; -webkit-text-stroke-width: 0px; white-space: pre; background-color: rgb(255, 255, 255); text-decoration-thickness: initial; text-decoration-style: initial; text-decoration-color: initial;&quot;&gt;&lt;span style=&quot;color: rgb(36, 36, 36); font-family: &amp;quot;Cascadia Mono&amp;quot;, Consolas, ui-monospace, Menlo, Monaco, monospace; font-size: 14px; font-style: normal; font-variant-ligatures: normal; font-variant-caps: normal; font-weight: 400; letter-spacing: normal; orphans: 2; text-align: start; text-indent: 0px; text-transform: none; widows: 2; word-spacing: 0px; -webkit-text-stroke-width: 0px; white-space: pre; background-color: rgb(255, 255, 255); text-decoration-thickness: initial; text-decoration-style: initial; text-decoration-color: initial; display: inline !important; float: none;&quot;&gt;[&amp;nbsp;&amp;nbsp;809.121414]&amp;nbsp;&amp;nbsp;&amp;lt;TASK&amp;gt;&lt;/span&gt;&lt;br style=&quot;box-sizing: border-box; -webkit-font-smoothing: antialiased; color: rgb(36, 36, 36); font-family: &amp;quot;Cascadia Mono&amp;quot;, Consolas, ui-monospace, Menlo, Monaco, monospace; font-size: 14px; font-style: normal; font-variant-ligatures: normal; font-variant-caps: normal; font-weight: 400; letter-spacing: normal; orphans: 2; text-align: start; text-indent: 0px; text-transform: none; widows: 2; word-spacing: 0px; -webkit-text-stroke-width: 0px; white-space: pre; background-color: rgb(255, 255, 255); text-decoration-thickness: initial; text-decoration-style: initial; text-decoration-color: initial;&quot;&gt;&lt;span style=&quot;color: rgb(36, 36, 36); font-family: &amp;quot;Cascadia Mono&amp;quot;, Consolas, ui-monospace, Menlo, Monaco, monospace; font-size: 14px; font-style: normal; font-variant-ligatures: normal; font-variant-caps: normal; font-weight: 400; letter-spacing: normal; orphans: 2; text-align: start; text-indent: 0px; text-transform: none; widows: 2; word-spacing: 0px; -webkit-text-stroke-width: 0px; white-space: pre; background-color: rgb(255, 255, 255); text-decoration-thickness: initial; text-decoration-style: initial; text-decoration-color: initial; display: inline !important; float: none;&quot;&gt;[&amp;nbsp;&amp;nbsp;809.121417]&amp;nbsp;&amp;nbsp;hv_map_vp_state_page+0x9d/0x300&lt;/span&gt;&lt;br style=&quot;box-sizing: border-box; -webkit-font-smoothing: antialiased; color: rgb(36, 36, 36); font-family: &amp;quot;Cascadia Mono&amp;quot;, Consolas, ui-monospace, Menlo, Monaco, monospace; font-size: 14px; font-style: normal; font-variant-ligatures: normal; font-variant-caps: normal; font-weight: 400; letter-spacing: normal; orphans: 2; text-align: start; text-indent: 0px; text-transform: none; widows: 2; word-spacing: 0px; -webkit-text-stroke-width: 0px; white-space: pre; background-color: rgb(255, 255, 255); text-decoration-thickness: initial; text-decoration-style: initial; text-decoration-color: initial;&quot;&gt;&lt;span style=&quot;color: rgb(36, 36, 36); font-family: &amp;quot;Cascadia Mono&amp;quot;, Consolas, ui-monospace, Menlo, Monaco, monospace; font-size: 14px; font-style: normal; font-variant-ligatures: normal; font-variant-caps: normal; font-weight: 400; letter-spacing: normal; orphans: 2; text-align: start; text-indent: 0px; text-transform: none; widows: 2; word-spacing: 0px; -webkit-text-stroke-width: 0px; white-space: pre; background-color: rgb(255, 255, 255); text-decoration-thickness: initial; text-decoration-style: initial; text-decoration-color: initial; display: inline !important; float: none;&quot;&gt;[&amp;nbsp;&amp;nbsp;809.121421]&amp;nbsp;&amp;nbsp;mshv_partition_ioctl+0xd85/0x19b0&lt;/span&gt;&lt;br style=&quot;box-sizing: border-box; -webkit-font-smoothing: antialiased; color: rgb(36, 36, 36); font-family: &amp;quot;Cascadia Mono&amp;quot;, Consolas, ui-monospace, Menlo, Monaco, monospace; font-size: 14px; font-style: normal; font-variant-ligatures: normal; font-variant-caps: normal; font-weight: 400; letter-spacing: normal; orphans: 2; text-align: start; text-indent: 0px; text-transform: none; widows: 2; word-spacing: 0px; -webkit-text-stroke-width: 0px; white-space: pre; background-color: rgb(255, 255, 255); text-decoration-thickness: initial; text-decoration-style: initial; text-decoration-color: initial;&quot;&gt;&lt;span style=&quot;color: rgb(36, 36, 36); font-family: &amp;quot;Cascadia Mono&amp;quot;, Consolas, ui-monospace, Menlo, Monaco, monospace; font-size: 14px; font-style: normal; font-variant-ligatures: normal; font-variant-caps: normal; font-weight: 400; letter-spacing: normal; orphans: 2; text-align: start; text-indent: 0px; text-transform: none; widows: 2; word-spacing: 0px; -webkit-text-stroke-width: 0px; white-space: pre; background-color: rgb(255, 255, 255); text-decoration-thickness: initial; text-decoration-style: initial; text-decoration-color: initial; display: inline !important; float: none;&quot;&gt;[&amp;nbsp;&amp;nbsp;809.121423]&amp;nbsp;&amp;nbsp;?&amp;nbsp;_raw_spin_unlock_irqrestore+0x9/0x20&lt;/span&gt;&lt;br style=&quot;box-sizing: border-box; -webkit-font-smoothing: antialiased; color: rgb(36, 36, 36); font-family: &amp;quot;Cascadia Mono&amp;quot;, Consolas, ui-monospace, Menlo, Monaco, monospace; font-size: 14px; font-style: normal; font-variant-ligatures: normal; font-variant-caps: normal; font-weight: 400; letter-spacing: normal; orphans: 2; text-align: start; text-indent: 0px; text-transform: none; widows: 2; word-spacing: 0px; -webkit-text-stroke-width: 0px; white-space: pre; background-color: rgb(255, 255, 255); text-decoration-thickness: initial; text-decoration-style: initial; text-decoration-color: initial;&quot;&gt;&lt;span style=&quot;color: rgb(36, 36, 36); font-family: &amp;quot;Cascadia Mono&amp;quot;, Consolas, ui-monospace, Menlo, Monaco, monospace; font-size: 14px; font-style: normal; font-variant-ligatures: normal; font-variant-caps: normal; font-weight: 400; letter-spacing: normal; orphans: 2; text-align: start; text-indent: 0px; text-transform: none; widows: 2; word-spacing: 0px; -webkit-text-stroke-width: 0px; white-space: pre; background-color: rgb(255, 255, 255); text-decoration-thickness: initial; text-decoration-style: initial; text-decoration-color: initial; display: inline !important; float: none;&quot;&gt;[&amp;nbsp;&amp;nbsp;809.121428]&amp;nbsp;&amp;nbsp;?&amp;nbsp;wake_up_new_task+0x1fd/0x2b0&lt;/span&gt;&lt;br style=&quot;box-sizing: border-box; -webkit-font-smoothing: antialiased; color: rgb(36, 36, 36); font-family: &amp;quot;Cascadia Mono&amp;quot;, Consolas, ui-monospace, Menlo, Monaco, monospace; font-size: 14px; font-style: normal; font-variant-ligatures: normal; font-variant-caps: normal; font-weight: 400; letter-spacing: normal; orphans: 2; text-align: start; text-indent: 0px; text-transform: none; widows: 2; word-spacing: 0px; -webkit-text-stroke-width: 0px; white-space: pre; background-color: rgb(255, 255, 255); text-decoration-thickness: initial; text-decoration-style: initial; text-decoration-color: initial;&quot;&gt;&lt;span style=&quot;color: rgb(36, 36, 36); font-family: &amp;quot;Cascadia Mono&amp;quot;, Consolas, ui-monospace, Menlo, Monaco, monospace; font-size: 14px; font-style: normal; font-variant-ligatures: normal; font-variant-caps: normal; font-weight: 400; letter-spacing: normal; orphans: 2; text-align: start; text-indent: 0px; text-transform: none; widows: 2; word-spacing: 0px; -webkit-text-stroke-width: 0px; white-space: pre; background-color: rgb(255, 255, 255); text-decoration-thickness: initial; text-decoration-style: initial; text-decoration-color: initial; display: inline !important; float: none;&quot;&gt;[&amp;nbsp;&amp;nbsp;809.121435]&amp;nbsp;&amp;nbsp;?&amp;nbsp;kernel_clone+0x103/0x380&lt;/span&gt;&lt;br style=&quot;box-sizing: border-box; -webkit-font-smoothing: antialiased; color: rgb(36, 36, 36); font-family: &amp;quot;Cascadia Mono&amp;quot;, Consolas, ui-monospace, Menlo, Monaco, monospace; font-size: 14px; font-style: normal; font-variant-ligatures: normal; font-variant-caps: normal; font-weight: 400; letter-spacing: normal; orphans: 2; text-align: start; text-indent: 0px; text-transform: none; widows: 2; word-spacing: 0px; -webkit-text-stroke-width: 0px; white-space: pre; background-color: rgb(255, 255, 255); text-decoration-thickness: initial; text-decoration-style: initial; text-decoration-color: initial;&quot;&gt;&lt;span style=&quot;color: rgb(36, 36, 36); font-family: &amp;quot;Cascadia Mono&amp;quot;, Consolas, ui-monospace, Menlo, Monaco, monospace; font-size: 14px; font-style: normal; font-variant-ligatures: normal; font-variant-caps: normal; font-weight: 400; letter-spacing: normal; orphans: 2; text-align: start; text-indent: 0px; text-transform: none; widows: 2; word-spacing: 0px; -webkit-text-stroke-width: 0px; white-space: pre; background-color: rgb(255, 255, 255); text-decoration-thickness: initial; text-decoration-style: initial; text-decoration-color: initial; display: inline !important; float: none;&quot;&gt;[&amp;nbsp;&amp;nbsp;809.121440]&amp;nbsp;&amp;nbsp;?&amp;nbsp;__x64_sys_ioctl+0x431/0x9b0&lt;/span&gt;&lt;br style=&quot;box-sizing: border-box; -webkit-font-smoothing: antialiased; color: rgb(36, 36, 36); font-family: &amp;quot;Cascadia Mono&amp;quot;, Consolas, ui-monospace, Menlo, Monaco, monospace; font-size: 14px; font-style: normal; font-variant-ligatures: normal; font-variant-caps: normal; font-weight: 400; letter-spacing: normal; orphans: 2; text-align: start; text-indent: 0px; text-transform: none; widows: 2; word-spacing: 0px; -webkit-text-stroke-width: 0px; white-space: pre; background-color: rgb(255, 255, 255); text-decoration-thickness: initial; text-decoration-style: initial; text-decoration-color: initial;&quot;&gt;&lt;span style=&quot;color: rgb(36, 36, 36); font-family: &amp;quot;Cascadia Mono&amp;quot;, Consolas, ui-monospace, Menlo, Monaco, monospace; font-size: 14px; font-style: normal; font-variant-ligatures: normal; font-variant-caps: normal; font-weight: 400; letter-spacing: normal; orphans: 2; text-align: start; text-indent: 0px; text-transform: none; widows: 2; word-spacing: 0px; -webkit-text-stroke-width: 0px; white-space: pre; background-color: rgb(255, 255, 255); text-decoration-thickness: initial; text-decoration-style: initial; text-decoration-color: initial; display: inline !important; float: none;&quot;&gt;[&amp;nbsp;&amp;nbsp;809.121444]&amp;nbsp;&amp;nbsp;__x64_sys_ioctl+0x431/0x9b0&lt;/span&gt;&lt;br style=&quot;box-sizing: border-box; -webkit-font-smoothing: antialiased; color: rgb(36, 36, 36); font-family: &amp;quot;Cascadia Mono&amp;quot;, Consolas, ui-monospace, Menlo, Monaco, monospace; font-size: 14px; font-style: normal; font-variant-ligatures: normal; font-variant-caps: normal; font-weight: 400; letter-spacing: normal; orphans: 2; text-align: start; text-indent: 0px; text-transform: none; widows: 2; word-spacing: 0px; -webkit-text-stroke-width: 0px; white-space: pre; background-color: rgb(255, 255, 255); text-decoration-thickness: initial; text-decoration-style: initial; text-decoration-color: initial;&quot;&gt;&lt;span style=&quot;color: rgb(36, 36, 36); font-family: &amp;quot;Cascadia Mono&amp;quot;, Consolas, ui-monospace, Menlo, Monaco, monospace; font-size: 14px; font-style: normal; font-variant-ligatures: normal; font-variant-caps: normal; font-weight: 400; letter-spacing: normal; orphans: 2; text-align: start; text-indent: 0px; text-transform: none; widows: 2; word-spacing: 0px; -webkit-text-stroke-width: 0px; white-space: pre; background-color: rgb(255, 255, 255); text-decoration-thickness: initial; text-decoration-style: initial; text-decoration-color: initial; display: inline !important; float: none;&quot;&gt;[&amp;nbsp;&amp;nbsp;809.121447]&amp;nbsp;&amp;nbsp;do_syscall_64+0x39/0x90&lt;/span&gt;&lt;br style=&quot;box-sizing: border-box; -webkit-font-smoothing: antialiased; color: rgb(36, 36, 36); font-family: &amp;quot;Cascadia Mono&amp;quot;, Consolas, ui-monospace, Menlo, Monaco, monospace; font-size: 14px; font-style: normal; font-variant-ligatures: normal; font-variant-caps: normal; font-weight: 400; letter-spacing: normal; orphans: 2; text-align: start; text-indent: 0px; text-transform: none; widows: 2; word-spacing: 0px; -webkit-text-stroke-width: 0px; white-space: pre; background-color: rgb(255, 255, 255); text-decoration-thickness: initial; text-decoration-style: initial; text-decoration-color: initial;&quot;&gt;&lt;span style=&quot;color: rgb(36, 36, 36); font-family: &amp;quot;Cascadia Mono&amp;quot;, Consolas, ui-monospace, Menlo, Monaco, monospace; font-size: 14px; font-style: normal; font-variant-ligatures: normal; font-variant-caps: normal; font-weight: 400; letter-spacing: normal; orphans: 2; text-align: start; text-indent: 0px; text-transform: none; widows: 2; word-spacing: 0px; -webkit-text-stroke-width: 0px; white-space: pre; background-color: rgb(255, 255, 255); text-decoration-thickness: initial; text-decoration-style: initial; text-decoration-color: initial; display: inline !important; float: none;&quot;&gt;[&amp;nbsp;&amp;nbsp;809.121450]&amp;nbsp;&amp;nbsp;entry_SYSCALL_64_after_hwframe+0x78/0xe2&lt;/span&gt;&lt;br style=&quot;box-sizing: border-box; -webkit-font-smoothing: antialiased; color: rgb(36, 36, 36); font-family: &amp;quot;Cascadia Mono&amp;quot;, Consolas, ui-monospace, Menlo, Monaco, monospace; font-size: 14px; font-style: normal; font-variant-ligatures: normal; font-variant-caps: normal; font-weight: 400; letter-spacing: normal; orphans: 2; text-align: start; text-indent: 0px; text-transform: none; widows: 2; word-spacing: 0px; -webkit-text-stroke-width: 0px; white-space: pre; background-color: rgb(255, 255, 255); text-decoration-thickness: initial; text-decoration-style: initial; text-decoration-color: initial;&quot;&gt;&lt;span style=&quot;color: rgb(36, 36, 36); font-family: &amp;quot;Cascadia Mono&amp;quot;, Consolas, ui-monospace, Menlo, Monaco, monospace; font-size: 14px; font-style: normal; font-variant-ligatures: normal; font-variant-caps: normal; font-weight: 400; letter-spacing: normal; orphans: 2; text-align: start; text-indent: 0px; text-transform: none; widows: 2; word-spacing: 0px; -webkit-text-stroke-width: 0px; white-space: pre; background-color: rgb(255, 255, 255); text-decoration-thickness: initial; text-decoration-style: initial; text-decoration-color: initial; display: inline !important; float: none;&quot;&gt;[&amp;nbsp;&amp;nbsp;809.121456]&amp;nbsp;RIP:&amp;nbsp;0033:0x7864f934fa8e&lt;/span&gt;&lt;br style=&quot;box-sizing: border-box; -webkit-font-smoothing: antialiased; color: rgb(36, 36, 36); font-family: &amp;quot;Cascadia Mono&amp;quot;, Consolas, ui-monospace, Menlo, Monaco, monospace; font-size: 14px; font-style: normal; font-variant-ligatures: normal; font-variant-caps: normal; font-weight: 400; letter-spacing: normal; orphans: 2; text-align: start; text-indent: 0px; text-transform: none; widows: 2; word-spacing: 0px; -webkit-text-stroke-width: 0px; white-space: pre; background-color: rgb(255, 255, 255); text-decoration-thickness: initial; text-decoration-style: initial; text-decoration-color: initial;&quot;&gt;&lt;span style=&quot;color: rgb(36, 36, 36); font-family: &amp;quot;Cascadia Mono&amp;quot;, Consolas, ui-monospace, Menlo, Monaco, monospace; font-size: 14px; font-style: normal; font-variant-ligatures: normal; font-variant-caps: normal; font-weight: 400; letter-spacing: normal; orphans: 2; text-align: start; text-indent: 0px; text-transform: none; widows: 2; word-spacing: 0px; -webkit-text-stroke-width: 0px; white-space: pre; background-color: rgb(255, 255, 255); text-decoration-thickness: initial; text-decoration-style: initial; text-decoration-color: initial; display: inline !important; float: none;&quot;&gt;[&amp;nbsp;&amp;nbsp;809.121459]&amp;nbsp;Code:&amp;nbsp;63&amp;nbsp;f6&amp;nbsp;48&amp;nbsp;8d&amp;nbsp;44&amp;nbsp;24&amp;nbsp;60&amp;nbsp;48&amp;nbsp;89&amp;nbsp;54&amp;nbsp;24&amp;nbsp;30&amp;nbsp;48&amp;nbsp;89&amp;nbsp;44&amp;nbsp;24&amp;nbsp;10&amp;nbsp;48&amp;nbsp;8d&amp;nbsp;44&amp;nbsp;24&amp;nbsp;20&amp;nbsp;48&amp;nbsp;89&amp;nbsp;44&amp;nbsp;24&amp;nbsp;18&amp;nbsp;b8&amp;nbsp;10&amp;nbsp;00&amp;nbsp;00&amp;nbsp;00&amp;nbsp;c7&amp;nbsp;44&amp;nbsp;24&amp;nbsp;08&amp;nbsp;10&amp;nbsp;00&amp;nbsp;00&amp;nbsp;00&amp;nbsp;0f&amp;nbsp;05&amp;nbsp;&amp;lt;48&amp;gt;&amp;nbsp;63&amp;nbsp;f8&amp;nbsp;e8&amp;nbsp;1a&amp;nbsp;e7&amp;nbsp;ff&amp;nbsp;ff&amp;nbsp;48&amp;nbsp;83&amp;nbsp;c4&amp;nbsp;58&amp;nbsp;c3&amp;nbsp;41&amp;nbsp;57&amp;nbsp;41&amp;nbsp;56&amp;nbsp;41&amp;nbsp;55&amp;nbsp;41&amp;nbsp;54&amp;nbsp;49&lt;/span&gt;&lt;br style=&quot;box-sizing: border-box; -webkit-font-smoothing: antialiased; color: rgb(36, 36, 36); font-family: &amp;quot;Cascadia Mono&amp;quot;, Consolas, ui-monospace, Menlo, Monaco, monospace; font-size: 14px; font-style: normal; font-variant-ligatures: normal; font-variant-caps: normal; font-weight: 400; letter-spacing: normal; orphans: 2; text-align: start; text-indent: 0px; text-transform: none; widows: 2; word-spacing: 0px; -webkit-text-stroke-width: 0px; white-space: pre; background-color: rgb(255, 255, 255); text-decoration-thickness: initial; text-decoration-style: initial; text-decoration-color: initial;&quot;&gt;&lt;span style=&quot;color: rgb(36, 36, 36); font-family: &amp;quot;Cascadia Mono&amp;quot;, Consolas, ui-monospace, Menlo, Monaco, monospace; font-size: 14px; font-style: normal; font-variant-ligatures: normal; font-variant-caps: normal; font-weight: 400; letter-spacing: normal; orphans: 2; text-align: start; text-indent: 0px; text-transform: none; widows: 2; word-spacing: 0px; -webkit-text-stroke-width: 0px; white-space: pre; background-color: rgb(255, 255, 255); text-decoration-thickness: initial; text-decoration-style: initial; text-decoration-color: initial; display: inline !important; float: none;&quot;&gt;[&amp;nbsp;&amp;nbsp;809.121460]&amp;nbsp;RSP:&amp;nbsp;002b:00007864f8fd2890&amp;nbsp;EFLAGS:&amp;nbsp;00000206&amp;nbsp;ORIG_RAX:&amp;nbsp;0000000000000010&lt;/span&gt;&lt;br style=&quot;box-sizing: border-box; -webkit-font-smoothing: antialiased; color: rgb(36, 36, 36); font-family: &amp;quot;Cascadia Mono&amp;quot;, Consolas, ui-monospace, Menlo, Monaco, monospace; font-size: 14px; font-style: normal; font-variant-ligatures: normal; font-variant-caps: normal; font-weight: 400; letter-spacing: normal; orphans: 2; text-align: start; text-indent: 0px; text-transform: none; widows: 2; word-spacing: 0px; -webkit-text-stroke-width: 0px; white-space: pre; background-color: rgb(255, 255, 255); text-decoration-thickness: initial; text-decoration-style: initial; text-decoration-color: initial;&quot;&gt;&lt;span style=&quot;color: rgb(36, 36, 36); font-family: &amp;quot;Cascadia Mono&amp;quot;, Consolas, ui-monospace, Menlo, Monaco, monospace; font-size: 14px; font-style: normal; font-variant-ligatures: normal; font-variant-caps: normal; font-weight: 400; letter-spacing: normal; orphans: 2; text-align: start; text-indent: 0px; text-transform: none; widows: 2; word-spacing: 0px; -webkit-text-stroke-width: 0px; white-space: pre; background-color: rgb(255, 255, 255); text-decoration-thickness: initial; text-decoration-style: initial; text-decoration-color: initial; display: inline !important; float: none;&quot;&gt;[&amp;nbsp;&amp;nbsp;809.121462]&amp;nbsp;RAX:&amp;nbsp;ffffffffffffffda&amp;nbsp;RBX:&amp;nbsp;00007864f954bed0&amp;nbsp;RCX:&amp;nbsp;00007864f934fa8e&lt;/span&gt;&lt;br style=&quot;box-sizing: border-box; -webkit-font-smoothing: antialiased; color: rgb(36, 36, 36); font-family: &amp;quot;Cascadia Mono&amp;quot;, Consolas, ui-monospace, Menlo, Monaco, monospace; font-size: 14px; font-style: normal; font-variant-ligatures: normal; font-variant-caps: normal; font-weight: 400; letter-spacing: normal; orphans: 2; text-align: start; text-indent: 0px; text-transform: none; widows: 2; word-spacing: 0px; -webkit-text-stroke-width: 0px; white-space: pre; background-color: rgb(255, 255, 255); text-decoration-thickness: initial; text-decoration-style: initial; text-decoration-color: initial;&quot;&gt;&lt;span style=&quot;color: rgb(36, 36, 36); font-family: &amp;quot;Cascadia Mono&amp;quot;, Consolas, ui-monospace, Menlo, Monaco, monospace; font-size: 14px; font-style: normal; font-variant-ligatures: normal; font-variant-caps: normal; font-weight: 400; letter-spacing: normal; orphans: 2; text-align: start; text-indent: 0px; text-transform: none; widows: 2; word-spacing: 0px; -webkit-text-stroke-width: 0px; white-space: pre; background-color: rgb(255, 255, 255); text-decoration-thickness: initial; text-decoration-style: initial; text-decoration-color: initial; display: inline !important; float: none;&quot;&gt;[&amp;nbsp;&amp;nbsp;809.121462]&amp;nbsp;RDX:&amp;nbsp;00007864f8fd2918&amp;nbsp;RSI:&amp;nbsp;000000004004b801&amp;nbsp;RDI:&amp;nbsp;0000000000000013&lt;/span&gt;&lt;br style=&quot;box-sizing: border-box; -webkit-font-smoothing: antialiased; color: rgb(36, 36, 36); font-family: &amp;quot;Cascadia Mono&amp;quot;, Consolas, ui-monospace, Menlo, Monaco, monospace; font-size: 14px; font-style: normal; font-variant-ligatures: normal; font-variant-caps: normal; font-weight: 400; letter-spacing: normal; orphans: 2; text-align: start; text-indent: 0px; text-transform: none; widows: 2; word-spacing: 0px; -webkit-text-stroke-width: 0px; white-space: pre; background-color: rgb(255, 255, 255); text-decoration-thickness: initial; text-decoration-style: initial; text-decoration-color: initial;&quot;&gt;&lt;span style=&quot;color: rgb(36, 36, 36); font-family: &amp;quot;Cascadia Mono&amp;quot;, Consolas, ui-monospace, Menlo, Monaco, monospace; font-size: 14px; font-style: normal; font-variant-ligatures: normal; font-variant-caps: normal; font-weight: 400; letter-spacing: normal; orphans: 2; text-align: start; text-indent: 0px; text-transform: none; widows: 2; word-spacing: 0px; -webkit-text-stroke-width: 0px; white-space: pre; background-color: rgb(255, 255, 255); text-decoration-thickness: initial; text-decoration-style: initial; text-decoration-color: initial; display: inline !important; float: none;&quot;&gt;[&amp;nbsp;&amp;nbsp;809.121463]&amp;nbsp;RBP:&amp;nbsp;0000000000000000&amp;nbsp;R08:&amp;nbsp;00007864f9470030&amp;nbsp;R09:&amp;nbsp;00007864f943f268&lt;/span&gt;&lt;br style=&quot;box-sizing: border-box; -webkit-font-smoothing: antialiased; color: rgb(36, 36, 36); font-family: &amp;quot;Cascadia Mono&amp;quot;, Consolas, ui-monospace, Menlo, Monaco, monospace; font-size: 14px; font-style: normal; font-variant-ligatures: normal; font-variant-caps: normal; font-weight: 400; letter-spacing: normal; orphans: 2; text-align: start; text-indent: 0px; text-transform: none; widows: 2; word-spacing: 0px; -webkit-text-stroke-width: 0px; white-space: pre; background-color: rgb(255, 255, 255); text-decoration-thickness: initial; text-decoration-style: initial; text-decoration-color: initial;&quot;&gt;&lt;span style=&quot;color: rgb(36, 36, 36); font-family: &amp;quot;Cascadia Mono&amp;quot;, Consolas, ui-monospace, Menlo, Monaco, monospace; font-size: 14px; font-style: normal; font-variant-ligatures: normal; font-variant-caps: normal; font-weight: 400; letter-spacing: normal; orphans: 2; text-align: start; text-indent: 0px; text-transform: none; widows: 2; word-spacing: 0px; -webkit-text-stroke-width: 0px; white-space: pre; background-color: rgb(255, 255, 255); text-decoration-thickness: initial; text-decoration-style: initial; text-decoration-color: initial; display: inline !important; float: none;&quot;&gt;[&amp;nbsp;&amp;nbsp;809.121464]&amp;nbsp;R10:&amp;nbsp;00007864f95484ac&amp;nbsp;R11:&amp;nbsp;0000000000000206&amp;nbsp;R12:&amp;nbsp;0000000000000000&lt;/span&gt;&lt;br style=&quot;box-sizing: border-box; -webkit-font-smoothing: antialiased; color: rgb(36, 36, 36); font-family: &amp;quot;Cascadia Mono&amp;quot;, Consolas, ui-monospace, Menlo, Monaco, monospace; font-size: 14px; font-style: normal; font-variant-ligatures: normal; font-variant-caps: normal; font-weight: 400; letter-spacing: normal; orphans: 2; text-align: start; text-indent: 0px; text-transform: none; widows: 2; word-spacing: 0px; -webkit-text-stroke-width: 0px; white-space: pre; background-color: rgb(255, 255, 255); text-decoration-thickness: initial; text-decoration-style: initial; text-decoration-color: initial;&quot;&gt;&lt;span style=&quot;color: rgb(36, 36, 36); font-family: &amp;quot;Cascadia Mono&amp;quot;, Consolas, ui-monospace, Menlo, Monaco, monospace; font-size: 14px; font-style: normal; font-variant-ligatures: normal; font-variant-caps: normal; font-weight: 400; letter-spacing: normal; orphans: 2; text-align: start; text-indent: 0px; text-transform: none; widows: 2; word-spacing: 0px; -webkit-text-stroke-width: 0px; white-space: pre; background-color: rgb(255, 255, 255); text-decoration-thickness: initial; text-decoration-style: initial; text-decoration-color: initial; display: inline !important; float: none;&quot;&gt;[&amp;nbsp;&amp;nbsp;809.121464]&amp;nbsp;R13:&amp;nbsp;00007864f954cc70&amp;nbsp;R14:&amp;nbsp;00007864f9470030&amp;nbsp;R15:&amp;nbsp;00007864f8fd3250&lt;/span&gt;&lt;br style=&quot;box-sizing: border-box; -webkit-font-smoothing: antialiased; color: rgb(36, 36, 36); font-family: &amp;quot;Cascadia Mono&amp;quot;, Consolas, ui-monospace, Menlo, Monaco, monospace; font-size: 14px; font-style: normal; font-variant-ligatures: normal; font-variant-caps: normal; font-weight: 400; letter-spacing: normal; orphans: 2; text-align: start; text-indent: 0px; text-transform: none; widows: 2; word-spacing: 0px; -webkit-text-stroke-width: 0px; white-space: pre; background-color: rgb(255, 255, 255); text-decoration-thickness: initial; text-decoration-style: initial; text-decoration-color: initial;&quot;&gt;&lt;span style=&quot;color: rgb(36, 36, 36); font-family: &amp;quot;Cascadia Mono&amp;quot;, Consolas, ui-monospace, Menlo, Monaco, monospace; font-size: 14px; font-style: normal; font-variant-ligatures: normal; font-variant-caps: normal; font-weight: 400; letter-spacing: normal; orphans: 2; text-align: start; text-indent: 0px; text-transform: none; widows: 2; word-spacing: 0px; -webkit-text-stroke-width: 0px; white-space: pre; background-color: rgb(255, 255, 255); text-decoration-thickness: initial; text-decoration-style: initial; text-decoration-color: initial; display: inline !important; float: none;&quot;&gt;[&amp;nbsp;&amp;nbsp;809.121466]&amp;nbsp;&amp;nbsp;&amp;lt;/TASK&amp;gt;&lt;/span&gt;" link="&lt;span style=&quot;color: rgb(36, 36, 36); font-family: &amp;quot;Cascadia Mono&amp;quot;, Consolas, ui-monospace, Menlo, Monaco, monospace; font-size: 14px; font-style: normal; font-variant-ligatures: normal; font-variant-caps: normal; font-weight: 400; letter-spacing: normal; orphans: 2; text-align: start; text-indent: 0px; text-transform: none; widows: 2; word-spacing: 0px; -webkit-text-stroke-width: 0px; white-space: pre; background-color: rgb(255, 255, 255); text-decoration-thickness: initial; text-decoration-style: initial; text-decoration-color: initial; display: inline !important; float: none;&quot;&gt;[&amp;nbsp;&amp;nbsp;809.119887]&amp;nbsp;rcu:&amp;nbsp;INFO:&amp;nbsp;rcu_sched&amp;nbsp;self-detected&amp;nbsp;stall&amp;nbsp;on&amp;nbsp;CPU&lt;/span&gt;&lt;br style=&quot;box-sizing: border-box; -webkit-font-smoothing: antialiased; color: rgb(36, 36, 36); font-family: &amp;quot;Cascadia Mono&amp;quot;, Consolas, ui-monospace, Menlo, Monaco, monospace; font-size: 14px; font-style: normal; font-variant-ligatures: normal; font-variant-caps: normal; font-weight: 400; letter-spacing: normal; orphans: 2; text-align: start; text-indent: 0px; text-transform: none; widows: 2; word-spacing: 0px; -webkit-text-stroke-width: 0px; white-space: pre; background-color: rgb(255, 255, 255); text-decoration-thickness: initial; text-decoration-style: initial; text-decoration-color: initial;&quot;&gt;&lt;span style=&quot;color: rgb(36, 36, 36); font-family: &amp;quot;Cascadia Mono&amp;quot;, Consolas, ui-monospace, Menlo, Monaco, monospace; font-size: 14px; font-style: normal; font-variant-ligatures: normal; font-variant-caps: normal; font-weight: 400; letter-spacing: normal; orphans: 2; text-align: start; text-indent: 0px; text-transform: none; widows: 2; word-spacing: 0px; -webkit-text-stroke-width: 0px; white-space: pre; background-color: rgb(255, 255, 255); text-decoration-thickness: initial; text-decoration-style: initial; text-decoration-color: initial; display: inline !important; float: none;&quot;&gt;[&amp;nbsp;&amp;nbsp;809.120388]&amp;nbsp;rcu:&amp;nbsp;&amp;nbsp;&amp;nbsp;&amp;nbsp;&amp;nbsp;67-....:&amp;nbsp;(14999&amp;nbsp;ticks&amp;nbsp;this&amp;nbsp;GP)&amp;nbsp;idle=9e3c/1/0x4000000000000000&amp;nbsp;softirq=764/764&amp;nbsp;fqs=7491&lt;/span&gt;&lt;br style=&quot;box-sizing: border-box; -webkit-font-smoothing: antialiased; color: rgb(36, 36, 36); font-family: &amp;quot;Cascadia Mono&amp;quot;, Consolas, ui-monospace, Menlo, Monaco, monospace; font-size: 14px; font-style: normal; font-variant-ligatures: normal; font-variant-caps: normal; font-weight: 400; letter-spacing: normal; orphans: 2; text-align: start; text-indent: 0px; text-transform: none; widows: 2; word-spacing: 0px; -webkit-text-stroke-width: 0px; white-space: pre; background-color: rgb(255, 255, 255); text-decoration-thickness: initial; text-decoration-style: initial; text-decoration-color: initial;&quot;&gt;&lt;span style=&quot;color: rgb(36, 36, 36); font-family: &amp;quot;Cascadia Mono&amp;quot;, Consolas, ui-monospace, Menlo, Monaco, monospace; font-size: 14px; font-style: normal; font-variant-ligatures: normal; font-variant-caps: normal; font-weight: 400; letter-spacing: normal; orphans: 2; text-align: start; text-indent: 0px; text-transform: none; widows: 2; word-spacing: 0px; -webkit-text-stroke-width: 0px; white-space: pre; background-color: rgb(255, 255, 255); text-decoration-thickness: initial; text-decoration-style: initial; text-decoration-color: initial; display: inline !important; float: none;&quot;&gt;[&amp;nbsp;&amp;nbsp;809.121040]&amp;nbsp;rcu:&amp;nbsp;&amp;nbsp;&amp;nbsp;&amp;nbsp;&amp;nbsp;(t=15000&amp;nbsp;jiffies&amp;nbsp;g=19453&amp;nbsp;q=793&amp;nbsp;ncpus=192)&lt;/span&gt;&lt;br style=&quot;box-sizing: border-box; -webkit-font-smoothing: antialiased; color: rgb(36, 36, 36); font-family: &amp;quot;Cascadia Mono&amp;quot;, Consolas, ui-monospace, Menlo, Monaco, monospace; font-size: 14px; font-style: normal; font-variant-ligatures: normal; font-variant-caps: normal; font-weight: 400; letter-spacing: normal; orphans: 2; text-align: start; text-indent: 0px; text-transform: none; widows: 2; word-spacing: 0px; -webkit-text-stroke-width: 0px; white-space: pre; background-color: rgb(255, 255, 255); text-decoration-thickness: initial; text-decoration-style: initial; text-decoration-color: initial;&quot;&gt;&lt;span style=&quot;color: rgb(36, 36, 36); font-family: &amp;quot;Cascadia Mono&amp;quot;, Consolas, ui-monospace, Menlo, Monaco, monospace; font-size: 14px; font-style: normal; font-variant-ligatures: normal; font-variant-caps: normal; font-weight: 400; letter-spacing: normal; orphans: 2; text-align: start; text-indent: 0px; text-transform: none; widows: 2; word-spacing: 0px; -webkit-text-stroke-width: 0px; white-space: pre; background-color: rgb(255, 255, 255); text-decoration-thickness: initial; text-decoration-style: initial; text-decoration-color: initial; display: inline !important; float: none;&quot;&gt;[&amp;nbsp;&amp;nbsp;809.121388]&amp;nbsp;CPU:&amp;nbsp;67&amp;nbsp;PID:&amp;nbsp;4198&amp;nbsp;Comm:&amp;nbsp;vmm&amp;nbsp;Not&amp;nbsp;tainted&amp;nbsp;6.6.101.mshv1-mgns2&amp;nbsp;&lt;/span&gt;&lt;span class=&quot;hljs-comment&quot; style=&quot;box-sizing: border-box; -webkit-font-smoothing: antialiased; color: rgb(112, 112, 112); font-family: &amp;quot;Cascadia Mono&amp;quot;, Consolas, ui-monospace, Menlo, Monaco, monospace; font-size: 14px; font-style: normal; font-variant-ligatures: normal; font-variant-caps: normal; font-weight: 400; letter-spacing: normal; orphans: 2; text-align: start; text-indent: 0px; text-transform: none; widows: 2; word-spacing: 0px; -webkit-text-stroke-width: 0px; white-space: pre; background-color: rgb(255, 255, 255); text-decoration-thickness: initial; text-decoration-style: initial; text-decoration-color: initial;&quot;&gt;#31&lt;/span&gt;&lt;br style=&quot;box-sizing: border-box; -webkit-font-smoothing: antialiased; color: rgb(36, 36, 36); font-family: &amp;quot;Cascadia Mono&amp;quot;, Consolas, ui-monospace, Menlo, Monaco, monospace; font-size: 14px; font-style: normal; font-variant-ligatures: normal; font-variant-caps: normal; font-weight: 400; letter-spacing: normal; orphans: 2; text-align: start; text-indent: 0px; text-transform: none; widows: 2; word-spacing: 0px; -webkit-text-stroke-width: 0px; white-space: pre; background-color: rgb(255, 255, 255); text-decoration-thickness: initial; text-decoration-style: initial; text-decoration-color: initial;&quot;&gt;&lt;span style=&quot;color: rgb(36, 36, 36); font-family: &amp;quot;Cascadia Mono&amp;quot;, Consolas, ui-monospace, Menlo, Monaco, monospace; font-size: 14px; font-style: normal; font-variant-ligatures: normal; font-variant-caps: normal; font-weight: 400; letter-spacing: normal; orphans: 2; text-align: start; text-indent: 0px; text-transform: none; widows: 2; word-spacing: 0px; -webkit-text-stroke-width: 0px; white-space: pre; background-color: rgb(255, 255, 255); text-decoration-thickness: initial; text-decoration-style: initial; text-decoration-color: initial; display: inline !important; float: none;&quot;&gt;[&amp;nbsp;&amp;nbsp;809.121390]&amp;nbsp;Hardware&amp;nbsp;name:&amp;nbsp;Microsoft&amp;nbsp;Corporation&amp;nbsp;Virtual&amp;nbsp;Machine/Virtual&amp;nbsp;Machine,&amp;nbsp;BIOS&amp;nbsp;Hyper-V&amp;nbsp;UEFI&amp;nbsp;Release&amp;nbsp;v4.1&amp;nbsp;01/28/2025&lt;/span&gt;&lt;br style=&quot;box-sizing: border-box; -webkit-font-smoothing: antialiased; color: rgb(36, 36, 36); font-family: &amp;quot;Cascadia Mono&amp;quot;, Consolas, ui-monospace, Menlo, Monaco, monospace; font-size: 14px; font-style: normal; font-variant-ligatures: normal; font-variant-caps: normal; font-weight: 400; letter-spacing: normal; orphans: 2; text-align: start; text-indent: 0px; text-transform: none; widows: 2; word-spacing: 0px; -webkit-text-stroke-width: 0px; white-space: pre; background-color: rgb(255, 255, 255); text-decoration-thickness: initial; text-decoration-style: initial; text-decoration-color: initial;&quot;&gt;&lt;span style=&quot;color: rgb(36, 36, 36); font-family: &amp;quot;Cascadia Mono&amp;quot;, Consolas, ui-monospace, Menlo, Monaco, monospace; font-size: 14px; font-style: normal; font-variant-ligatures: normal; font-variant-caps: normal; font-weight: 400; letter-spacing: normal; orphans: 2; text-align: start; text-indent: 0px; text-transform: none; widows: 2; word-spacing: 0px; -webkit-text-stroke-width: 0px; white-space: pre; background-color: rgb(255, 255, 255); text-decoration-thickness: initial; text-decoration-style: initial; text-decoration-color: initial; display: inline !important; float: none;&quot;&gt;[&amp;nbsp;&amp;nbsp;809.121392]&amp;nbsp;RIP:&amp;nbsp;0010:hv_call_deposit_pages.part.0+0x2cf/0x3d0&lt;/span&gt;&lt;br style=&quot;box-sizing: border-box; -webkit-font-smoothing: antialiased; color: rgb(36, 36, 36); font-family: &amp;quot;Cascadia Mono&amp;quot;, Consolas, ui-monospace, Menlo, Monaco, monospace; font-size: 14px; font-style: normal; font-variant-ligatures: normal; font-variant-caps: normal; font-weight: 400; letter-spacing: normal; orphans: 2; text-align: start; text-indent: 0px; text-transform: none; widows: 2; word-spacing: 0px; -webkit-text-stroke-width: 0px; white-space: pre; background-color: rgb(255, 255, 255); text-decoration-thickness: initial; text-decoration-style: initial; text-decoration-color: initial;&quot;&gt;&lt;span style=&quot;color: rgb(36, 36, 36); font-family: &amp;quot;Cascadia Mono&amp;quot;, Consolas, ui-monospace, Menlo, Monaco, monospace; font-size: 14px; font-style: normal; font-variant-ligatures: normal; font-variant-caps: normal; font-weight: 400; letter-spacing: normal; orphans: 2; text-align: start; text-indent: 0px; text-transform: none; widows: 2; word-spacing: 0px; -webkit-text-stroke-width: 0px; white-space: pre; background-color: rgb(255, 255, 255); text-decoration-thickness: initial; text-decoration-style: initial; text-decoration-color: initial; display: inline !important; float: none;&quot;&gt;[&amp;nbsp;&amp;nbsp;809.121400]&amp;nbsp;Code:&amp;nbsp;63&amp;nbsp;ff&amp;nbsp;31&amp;nbsp;f6&amp;nbsp;41&amp;nbsp;83&amp;nbsp;c7&amp;nbsp;01&amp;nbsp;48&amp;nbsp;01&amp;nbsp;&lt;/span&gt;&lt;span class=&quot;hljs-function&quot; style=&quot;box-sizing: border-box; -webkit-font-smoothing: antialiased; color: rgb(188, 47, 50); font-family: &amp;quot;Cascadia Mono&amp;quot;, Consolas, ui-monospace, Menlo, Monaco, monospace; font-size: 14px; font-style: normal; font-variant-ligatures: normal; font-variant-caps: normal; font-weight: 400; letter-spacing: normal; orphans: 2; text-align: start; text-indent: 0px; text-transform: none; widows: 2; word-spacing: 0px; -webkit-text-stroke-width: 0px; white-space: pre; background-color: rgb(255, 255, 255); text-decoration-thickness: initial; text-decoration-style: initial; text-decoration-color: initial;&quot;&gt;df&lt;/span&gt;&lt;span style=&quot;color: rgb(36, 36, 36); font-family: &amp;quot;Cascadia Mono&amp;quot;, Consolas, ui-monospace, Menlo, Monaco, monospace; font-size: 14px; font-style: normal; font-variant-ligatures: normal; font-variant-caps: normal; font-weight: 400; letter-spacing: normal; orphans: 2; text-align: start; text-indent: 0px; text-transform: none; widows: 2; word-spacing: 0px; -webkit-text-stroke-width: 0px; white-space: pre; background-color: rgb(255, 255, 255); text-decoration-thickness: initial; text-decoration-style: initial; text-decoration-color: initial; display: inline !important; float: none;&quot;&gt;&amp;nbsp;48&amp;nbsp;c1&amp;nbsp;e7&amp;nbsp;06&amp;nbsp;48&amp;nbsp;01&amp;nbsp;c7&amp;nbsp;e8&amp;nbsp;74&amp;nbsp;c7&amp;nbsp;70&amp;nbsp;ff&amp;nbsp;44&amp;nbsp;3b&amp;nbsp;7d&amp;nbsp;00&amp;nbsp;7c&amp;nbsp;db&amp;nbsp;48&amp;nbsp;83&amp;nbsp;c5&amp;nbsp;04&amp;nbsp;49&amp;nbsp;83&amp;nbsp;c4&amp;nbsp;08&amp;nbsp;49&amp;nbsp;39&amp;nbsp;ee&amp;nbsp;75&amp;nbsp;b0&amp;nbsp;&amp;lt;48&amp;gt;&amp;nbsp;8b&amp;nbsp;3c&amp;nbsp;24&amp;nbsp;31&amp;nbsp;f6&amp;nbsp;e8&amp;nbsp;36&amp;nbsp;c8&amp;nbsp;70&amp;nbsp;ff&amp;nbsp;4c&amp;nbsp;89&amp;nbsp;ef&amp;nbsp;e8&amp;nbsp;3e&amp;nbsp;04&amp;nbsp;6d&amp;nbsp;ff&amp;nbsp;8b&amp;nbsp;44&amp;nbsp;24&lt;/span&gt;&lt;br style=&quot;box-sizing: border-box; -webkit-font-smoothing: antialiased; color: rgb(36, 36, 36); font-family: &amp;quot;Cascadia Mono&amp;quot;, Consolas, ui-monospace, Menlo, Monaco, monospace; font-size: 14px; font-style: normal; font-variant-ligatures: normal; font-variant-caps: normal; font-weight: 400; letter-spacing: normal; orphans: 2; text-align: start; text-indent: 0px; text-transform: none; widows: 2; word-spacing: 0px; -webkit-text-stroke-width: 0px; white-space: pre; background-color: rgb(255, 255, 255); text-decoration-thickness: initial; text-decoration-style: initial; text-decoration-color: initial;&quot;&gt;&lt;span style=&quot;color: rgb(36, 36, 36); font-family: &amp;quot;Cascadia Mono&amp;quot;, Consolas, ui-monospace, Menlo, Monaco, monospace; font-size: 14px; font-style: normal; font-variant-ligatures: normal; font-variant-caps: normal; font-weight: 400; letter-spacing: normal; orphans: 2; text-align: start; text-indent: 0px; text-transform: none; widows: 2; word-spacing: 0px; -webkit-text-stroke-width: 0px; white-space: pre; background-color: rgb(255, 255, 255); text-decoration-thickness: initial; text-decoration-style: initial; text-decoration-color: initial; display: inline !important; float: none;&quot;&gt;[&amp;nbsp;&amp;nbsp;809.121401]&amp;nbsp;RSP:&amp;nbsp;0018:ffffc900213e7d28&amp;nbsp;EFLAGS:&amp;nbsp;00000206&lt;/span&gt;&lt;br style=&quot;box-sizing: border-box; -webkit-font-smoothing: antialiased; color: rgb(36, 36, 36); font-family: &amp;quot;Cascadia Mono&amp;quot;, Consolas, ui-monospace, Menlo, Monaco, monospace; font-size: 14px; font-style: normal; font-variant-ligatures: normal; font-variant-caps: normal; font-weight: 400; letter-spacing: normal; orphans: 2; text-align: start; text-indent: 0px; text-transform: none; widows: 2; word-spacing: 0px; -webkit-text-stroke-width: 0px; white-space: pre; background-color: rgb(255, 255, 255); text-decoration-thickness: initial; text-decoration-style: initial; text-decoration-color: initial;&quot;&gt;&lt;span style=&quot;color: rgb(36, 36, 36); font-family: &amp;quot;Cascadia Mono&amp;quot;, Consolas, ui-monospace, Menlo, Monaco, monospace; font-size: 14px; font-style: normal; font-variant-ligatures: normal; font-variant-caps: normal; font-weight: 400; letter-spacing: normal; orphans: 2; text-align: start; text-indent: 0px; text-transform: none; widows: 2; word-spacing: 0px; -webkit-text-stroke-width: 0px; white-space: pre; background-color: rgb(255, 255, 255); text-decoration-thickness: initial; text-decoration-style: initial; text-decoration-color: initial; display: inline !important; float: none;&quot;&gt;[&amp;nbsp;&amp;nbsp;809.121404]&amp;nbsp;RAX:&amp;nbsp;0000000000000043&amp;nbsp;RBX:&amp;nbsp;ffff88b10814e000&amp;nbsp;RCX:&amp;nbsp;0000000100000048&lt;/span&gt;&lt;br style=&quot;box-sizing: border-box; -webkit-font-smoothing: antialiased; color: rgb(36, 36, 36); font-family: &amp;quot;Cascadia Mono&amp;quot;, Consolas, ui-monospace, Menlo, Monaco, monospace; font-size: 14px; font-style: normal; font-variant-ligatures: normal; font-variant-caps: normal; font-weight: 400; letter-spacing: normal; orphans: 2; text-align: start; text-indent: 0px; text-transform: none; widows: 2; word-spacing: 0px; -webkit-text-stroke-width: 0px; white-space: pre; background-color: rgb(255, 255, 255); text-decoration-thickness: initial; text-decoration-style: initial; text-decoration-color: initial;&quot;&gt;&lt;span style=&quot;color: rgb(36, 36, 36); font-family: &amp;quot;Cascadia Mono&amp;quot;, Consolas, ui-monospace, Menlo, Monaco, monospace; font-size: 14px; font-style: normal; font-variant-ligatures: normal; font-variant-caps: normal; font-weight: 400; letter-spacing: normal; orphans: 2; text-align: start; text-indent: 0px; text-transform: none; widows: 2; word-spacing: 0px; -webkit-text-stroke-width: 0px; white-space: pre; background-color: rgb(255, 255, 255); text-decoration-thickness: initial; text-decoration-style: initial; text-decoration-color: initial; display: inline !important; float: none;&quot;&gt;[&amp;nbsp;&amp;nbsp;809.121405]&amp;nbsp;RDX:&amp;nbsp;0001000000000000&amp;nbsp;RSI:&amp;nbsp;0000000000000000&amp;nbsp;RDI:&amp;nbsp;00000000033931fc&lt;/span&gt;&lt;br style=&quot;box-sizing: border-box; -webkit-font-smoothing: antialiased; color: rgb(36, 36, 36); font-family: &amp;quot;Cascadia Mono&amp;quot;, Consolas, ui-monospace, Menlo, Monaco, monospace; font-size: 14px; font-style: normal; font-variant-ligatures: normal; font-variant-caps: normal; font-weight: 400; letter-spacing: normal; orphans: 2; text-align: start; text-indent: 0px; text-transform: none; widows: 2; word-spacing: 0px; -webkit-text-stroke-width: 0px; white-space: pre; background-color: rgb(255, 255, 255); text-decoration-thickness: initial; text-decoration-style: initial; text-decoration-color: initial;&quot;&gt;&lt;span style=&quot;color: rgb(36, 36, 36); font-family: &amp;quot;Cascadia Mono&amp;quot;, Consolas, ui-monospace, Menlo, Monaco, monospace; font-size: 14px; font-style: normal; font-variant-ligatures: normal; font-variant-caps: normal; font-weight: 400; letter-spacing: normal; orphans: 2; text-align: start; text-indent: 0px; text-transform: none; widows: 2; word-spacing: 0px; -webkit-text-stroke-width: 0px; white-space: pre; background-color: rgb(255, 255, 255); text-decoration-thickness: initial; text-decoration-style: initial; text-decoration-color: initial; display: inline !important; float: none;&quot;&gt;[&amp;nbsp;&amp;nbsp;809.121406]&amp;nbsp;RBP:&amp;nbsp;0001000100000048&amp;nbsp;R08:&amp;nbsp;0000000000000000&amp;nbsp;R09:&amp;nbsp;ffff88b2f2f20008&lt;/span&gt;&lt;br style=&quot;box-sizing: border-box; -webkit-font-smoothing: antialiased; color: rgb(36, 36, 36); font-family: &amp;quot;Cascadia Mono&amp;quot;, Consolas, ui-monospace, Menlo, Monaco, monospace; font-size: 14px; font-style: normal; font-variant-ligatures: normal; font-variant-caps: normal; font-weight: 400; letter-spacing: normal; orphans: 2; text-align: start; text-indent: 0px; text-transform: none; widows: 2; word-spacing: 0px; -webkit-text-stroke-width: 0px; white-space: pre; background-color: rgb(255, 255, 255); text-decoration-thickness: initial; text-decoration-style: initial; text-decoration-color: initial;&quot;&gt;&lt;span style=&quot;color: rgb(36, 36, 36); font-family: &amp;quot;Cascadia Mono&amp;quot;, Consolas, ui-monospace, Menlo, Monaco, monospace; font-size: 14px; font-style: normal; font-variant-ligatures: normal; font-variant-caps: normal; font-weight: 400; letter-spacing: normal; orphans: 2; text-align: start; text-indent: 0px; text-transform: none; widows: 2; word-spacing: 0px; -webkit-text-stroke-width: 0px; white-space: pre; background-color: rgb(255, 255, 255); text-decoration-thickness: initial; text-decoration-style: initial; text-decoration-color: initial; display: inline !important; float: none;&quot;&gt;[&amp;nbsp;&amp;nbsp;809.121406]&amp;nbsp;R10:&amp;nbsp;ffff88b108172004&amp;nbsp;R11:&amp;nbsp;ffffea0000000000&amp;nbsp;R12:&amp;nbsp;0000000000000000&lt;/span&gt;&lt;br style=&quot;box-sizing: border-box; -webkit-font-smoothing: antialiased; color: rgb(36, 36, 36); font-family: &amp;quot;Cascadia Mono&amp;quot;, Consolas, ui-monospace, Menlo, Monaco, monospace; font-size: 14px; font-style: normal; font-variant-ligatures: normal; font-variant-caps: normal; font-weight: 400; letter-spacing: normal; orphans: 2; text-align: start; text-indent: 0px; text-transform: none; widows: 2; word-spacing: 0px; -webkit-text-stroke-width: 0px; white-space: pre; background-color: rgb(255, 255, 255); text-decoration-thickness: initial; text-decoration-style: initial; text-decoration-color: initial;&quot;&gt;&lt;span style=&quot;color: rgb(36, 36, 36); font-family: &amp;quot;Cascadia Mono&amp;quot;, Consolas, ui-monospace, Menlo, Monaco, monospace; font-size: 14px; font-style: normal; font-variant-ligatures: normal; font-variant-caps: normal; font-weight: 400; letter-spacing: normal; orphans: 2; text-align: start; text-indent: 0px; text-transform: none; widows: 2; word-spacing: 0px; -webkit-text-stroke-width: 0px; white-space: pre; background-color: rgb(255, 255, 255); text-decoration-thickness: initial; text-decoration-style: initial; text-decoration-color: initial; display: inline !important; float: none;&quot;&gt;[&amp;nbsp;&amp;nbsp;809.121407]&amp;nbsp;R13:&amp;nbsp;ffff88b108172000&amp;nbsp;R14:&amp;nbsp;0000000000000001&amp;nbsp;R15:&amp;nbsp;0000000000000001&lt;/span&gt;&lt;br style=&quot;box-sizing: border-box; -webkit-font-smoothing: antialiased; color: rgb(36, 36, 36); font-family: &amp;quot;Cascadia Mono&amp;quot;, Consolas, ui-monospace, Menlo, Monaco, monospace; font-size: 14px; font-style: normal; font-variant-ligatures: normal; font-variant-caps: normal; font-weight: 400; letter-spacing: normal; orphans: 2; text-align: start; text-indent: 0px; text-transform: none; widows: 2; word-spacing: 0px; -webkit-text-stroke-width: 0px; white-space: pre; background-color: rgb(255, 255, 255); text-decoration-thickness: initial; text-decoration-style: initial; text-decoration-color: initial;&quot;&gt;&lt;span style=&quot;color: rgb(36, 36, 36); font-family: &amp;quot;Cascadia Mono&amp;quot;, Consolas, ui-monospace, Menlo, Monaco, monospace; font-size: 14px; font-style: normal; font-variant-ligatures: normal; font-variant-caps: normal; font-weight: 400; letter-spacing: normal; orphans: 2; text-align: start; text-indent: 0px; text-transform: none; widows: 2; word-spacing: 0px; -webkit-text-stroke-width: 0px; white-space: pre; background-color: rgb(255, 255, 255); text-decoration-thickness: initial; text-decoration-style: initial; text-decoration-color: initial; display: inline !important; float: none;&quot;&gt;[&amp;nbsp;&amp;nbsp;809.121409]&amp;nbsp;FS:&amp;nbsp;&amp;nbsp;00007864f8fffb38(0000)&amp;nbsp;GS:ffff88e03f6c0000(0000)&amp;nbsp;knlGS:0000000000000000&lt;/span&gt;&lt;br style=&quot;box-sizing: border-box; -webkit-font-smoothing: antialiased; color: rgb(36, 36, 36); font-family: &amp;quot;Cascadia Mono&amp;quot;, Consolas, ui-monospace, Menlo, Monaco, monospace; font-size: 14px; font-style: normal; font-variant-ligatures: normal; font-variant-caps: normal; font-weight: 400; letter-spacing: normal; orphans: 2; text-align: start; text-indent: 0px; text-transform: none; widows: 2; word-spacing: 0px; -webkit-text-stroke-width: 0px; white-space: pre; background-color: rgb(255, 255, 255); text-decoration-thickness: initial; text-decoration-style: initial; text-decoration-color: initial;&quot;&gt;&lt;span style=&quot;color: rgb(36, 36, 36); font-family: &amp;quot;Cascadia Mono&amp;quot;, Consolas, ui-monospace, Menlo, Monaco, monospace; font-size: 14px; font-style: normal; font-variant-ligatures: normal; font-variant-caps: normal; font-weight: 400; letter-spacing: normal; orphans: 2; text-align: start; text-indent: 0px; text-transform: none; widows: 2; word-spacing: 0px; -webkit-text-stroke-width: 0px; white-space: pre; background-color: rgb(255, 255, 255); text-decoration-thickness: initial; text-decoration-style: initial; text-decoration-color: initial; display: inline !important; float: none;&quot;&gt;[&amp;nbsp;&amp;nbsp;809.121410]&amp;nbsp;CS:&amp;nbsp;&amp;nbsp;0010&amp;nbsp;DS:&amp;nbsp;0000&amp;nbsp;ES:&amp;nbsp;0000&amp;nbsp;CR0:&amp;nbsp;0000000080050033&lt;/span&gt;&lt;br style=&quot;box-sizing: border-box; -webkit-font-smoothing: antialiased; color: rgb(36, 36, 36); font-family: &amp;quot;Cascadia Mono&amp;quot;, Consolas, ui-monospace, Menlo, Monaco, monospace; font-size: 14px; font-style: normal; font-variant-ligatures: normal; font-variant-caps: normal; font-weight: 400; letter-spacing: normal; orphans: 2; text-align: start; text-indent: 0px; text-transform: none; widows: 2; word-spacing: 0px; -webkit-text-stroke-width: 0px; white-space: pre; background-color: rgb(255, 255, 255); text-decoration-thickness: initial; text-decoration-style: initial; text-decoration-color: initial;&quot;&gt;&lt;span style=&quot;color: rgb(36, 36, 36); font-family: &amp;quot;Cascadia Mono&amp;quot;, Consolas, ui-monospace, Menlo, Monaco, monospace; font-size: 14px; font-style: normal; font-variant-ligatures: normal; font-variant-caps: normal; font-weight: 400; letter-spacing: normal; orphans: 2; text-align: start; text-indent: 0px; text-transform: none; widows: 2; word-spacing: 0px; -webkit-text-stroke-width: 0px; white-space: pre; background-color: rgb(255, 255, 255); text-decoration-thickness: initial; text-decoration-style: initial; text-decoration-color: initial; display: inline !important; float: none;&quot;&gt;[&amp;nbsp;&amp;nbsp;809.121411]&amp;nbsp;CR2:&amp;nbsp;ffffc9001a5b8668&amp;nbsp;CR3:&amp;nbsp;000000313ecb2005&amp;nbsp;CR4:&amp;nbsp;0000000000370ee0&lt;/span&gt;&lt;br style=&quot;box-sizing: border-box; -webkit-font-smoothing: antialiased; color: rgb(36, 36, 36); font-family: &amp;quot;Cascadia Mono&amp;quot;, Consolas, ui-monospace, Menlo, Monaco, monospace; font-size: 14px; font-style: normal; font-variant-ligatures: normal; font-variant-caps: normal; font-weight: 400; letter-spacing: normal; orphans: 2; text-align: start; text-indent: 0px; text-transform: none; widows: 2; word-spacing: 0px; -webkit-text-stroke-width: 0px; white-space: pre; background-color: rgb(255, 255, 255); text-decoration-thickness: initial; text-decoration-style: initial; text-decoration-color: initial;&quot;&gt;&lt;span style=&quot;color: rgb(36, 36, 36); font-family: &amp;quot;Cascadia Mono&amp;quot;, Consolas, ui-monospace, Menlo, Monaco, monospace; font-size: 14px; font-style: normal; font-variant-ligatures: normal; font-variant-caps: normal; font-weight: 400; letter-spacing: normal; orphans: 2; text-align: start; text-indent: 0px; text-transform: none; widows: 2; word-spacing: 0px; -webkit-text-stroke-width: 0px; white-space: pre; background-color: rgb(255, 255, 255); text-decoration-thickness: initial; text-decoration-style: initial; text-decoration-color: initial; display: inline !important; float: none;&quot;&gt;[&amp;nbsp;&amp;nbsp;809.121412]&amp;nbsp;Call&amp;nbsp;Trace:&lt;/span&gt;&lt;br style=&quot;box-sizing: border-box; -webkit-font-smoothing: antialiased; color: rgb(36, 36, 36); font-family: &amp;quot;Cascadia Mono&amp;quot;, Consolas, ui-monospace, Menlo, Monaco, monospace; font-size: 14px; font-style: normal; font-variant-ligatures: normal; font-variant-caps: normal; font-weight: 400; letter-spacing: normal; orphans: 2; text-align: start; text-indent: 0px; text-transform: none; widows: 2; word-spacing: 0px; -webkit-text-stroke-width: 0px; white-space: pre; background-color: rgb(255, 255, 255); text-decoration-thickness: initial; text-decoration-style: initial; text-decoration-color: initial;&quot;&gt;&lt;span style=&quot;color: rgb(36, 36, 36); font-family: &amp;quot;Cascadia Mono&amp;quot;, Consolas, ui-monospace, Menlo, Monaco, monospace; font-size: 14px; font-style: normal; font-variant-ligatures: normal; font-variant-caps: normal; font-weight: 400; letter-spacing: normal; orphans: 2; text-align: start; text-indent: 0px; text-transform: none; widows: 2; word-spacing: 0px; -webkit-text-stroke-width: 0px; white-space: pre; background-color: rgb(255, 255, 255); text-decoration-thickness: initial; text-decoration-style: initial; text-decoration-color: initial; display: inline !important; float: none;&quot;&gt;[&amp;nbsp;&amp;nbsp;809.121414]&amp;nbsp;&amp;nbsp;&amp;lt;TASK&amp;gt;&lt;/span&gt;&lt;br style=&quot;box-sizing: border-box; -webkit-font-smoothing: antialiased; color: rgb(36, 36, 36); font-family: &amp;quot;Cascadia Mono&amp;quot;, Consolas, ui-monospace, Menlo, Monaco, monospace; font-size: 14px; font-style: normal; font-variant-ligatures: normal; font-variant-caps: normal; font-weight: 400; letter-spacing: normal; orphans: 2; text-align: start; text-indent: 0px; text-transform: none; widows: 2; word-spacing: 0px; -webkit-text-stroke-width: 0px; white-space: pre; background-color: rgb(255, 255, 255); text-decoration-thickness: initial; text-decoration-style: initial; text-decoration-color: initial;&quot;&gt;&lt;span style=&quot;color: rgb(36, 36, 36); font-family: &amp;quot;Cascadia Mono&amp;quot;, Consolas, ui-monospace, Menlo, Monaco, monospace; font-size: 14px; font-style: normal; font-variant-ligatures: normal; font-variant-caps: normal; font-weight: 400; letter-spacing: normal; orphans: 2; text-align: start; text-indent: 0px; text-transform: none; widows: 2; word-spacing: 0px; -webkit-text-stroke-width: 0px; white-space: pre; background-color: rgb(255, 255, 255); text-decoration-thickness: initial; text-decoration-style: initial; text-decoration-color: initial; display: inline !important; float: none;&quot;&gt;[&amp;nbsp;&amp;nbsp;809.121417]&amp;nbsp;&amp;nbsp;hv_map_vp_state_page+0x9d/0x300&lt;/span&gt;&lt;br style=&quot;box-sizing: border-box; -webkit-font-smoothing: antialiased; color: rgb(36, 36, 36); font-family: &amp;quot;Cascadia Mono&amp;quot;, Consolas, ui-monospace, Menlo, Monaco, monospace; font-size: 14px; font-style: normal; font-variant-ligatures: normal; font-variant-caps: normal; font-weight: 400; letter-spacing: normal; orphans: 2; text-align: start; text-indent: 0px; text-transform: none; widows: 2; word-spacing: 0px; -webkit-text-stroke-width: 0px; white-space: pre; background-color: rgb(255, 255, 255); text-decoration-thickness: initial; text-decoration-style: initial; text-decoration-color: initial;&quot;&gt;&lt;span style=&quot;color: rgb(36, 36, 36); font-family: &amp;quot;Cascadia Mono&amp;quot;, Consolas, ui-monospace, Menlo, Monaco, monospace; font-size: 14px; font-style: normal; font-variant-ligatures: normal; font-variant-caps: normal; font-weight: 400; letter-spacing: normal; orphans: 2; text-align: start; text-indent: 0px; text-transform: none; widows: 2; word-spacing: 0px; -webkit-text-stroke-width: 0px; white-space: pre; background-color: rgb(255, 255, 255); text-decoration-thickness: initial; text-decoration-style: initial; text-decoration-color: initial; display: inline !important; float: none;&quot;&gt;[&amp;nbsp;&amp;nbsp;809.121421]&amp;nbsp;&amp;nbsp;mshv_partition_ioctl+0xd85/0x19b0&lt;/span&gt;&lt;br style=&quot;box-sizing: border-box; -webkit-font-smoothing: antialiased; color: rgb(36, 36, 36); font-family: &amp;quot;Cascadia Mono&amp;quot;, Consolas, ui-monospace, Menlo, Monaco, monospace; font-size: 14px; font-style: normal; font-variant-ligatures: normal; font-variant-caps: normal; font-weight: 400; letter-spacing: normal; orphans: 2; text-align: start; text-indent: 0px; text-transform: none; widows: 2; word-spacing: 0px; -webkit-text-stroke-width: 0px; white-space: pre; background-color: rgb(255, 255, 255); text-decoration-thickness: initial; text-decoration-style: initial; text-decoration-color: initial;&quot;&gt;&lt;span style=&quot;color: rgb(36, 36, 36); font-family: &amp;quot;Cascadia Mono&amp;quot;, Consolas, ui-monospace, Menlo, Monaco, monospace; font-size: 14px; font-style: normal; font-variant-ligatures: normal; font-variant-caps: normal; font-weight: 400; letter-spacing: normal; orphans: 2; text-align: start; text-indent: 0px; text-transform: none; widows: 2; word-spacing: 0px; -webkit-text-stroke-width: 0px; white-space: pre; background-color: rgb(255, 255, 255); text-decoration-thickness: initial; text-decoration-style: initial; text-decoration-color: initial; display: inline !important; float: none;&quot;&gt;[&amp;nbsp;&amp;nbsp;809.121423]&amp;nbsp;&amp;nbsp;?&amp;nbsp;_raw_spin_unlock_irqrestore+0x9/0x20&lt;/span&gt;&lt;br style=&quot;box-sizing: border-box; -webkit-font-smoothing: antialiased; color: rgb(36, 36, 36); font-family: &amp;quot;Cascadia Mono&amp;quot;, Consolas, ui-monospace, Menlo, Monaco, monospace; font-size: 14px; font-style: normal; font-variant-ligatures: normal; font-variant-caps: normal; font-weight: 400; letter-spacing: normal; orphans: 2; text-align: start; text-indent: 0px; text-transform: none; widows: 2; word-spacing: 0px; -webkit-text-stroke-width: 0px; white-space: pre; background-color: rgb(255, 255, 255); text-decoration-thickness: initial; text-decoration-style: initial; text-decoration-color: initial;&quot;&gt;&lt;span style=&quot;color: rgb(36, 36, 36); font-family: &amp;quot;Cascadia Mono&amp;quot;, Consolas, ui-monospace, Menlo, Monaco, monospace; font-size: 14px; font-style: normal; font-variant-ligatures: normal; font-variant-caps: normal; font-weight: 400; letter-spacing: normal; orphans: 2; text-align: start; text-indent: 0px; text-transform: none; widows: 2; word-spacing: 0px; -webkit-text-stroke-width: 0px; white-space: pre; background-color: rgb(255, 255, 255); text-decoration-thickness: initial; text-decoration-style: initial; text-decoration-color: initial; display: inline !important; float: none;&quot;&gt;[&amp;nbsp;&amp;nbsp;809.121428]&amp;nbsp;&amp;nbsp;?&amp;nbsp;wake_up_new_task+0x1fd/0x2b0&lt;/span&gt;&lt;br style=&quot;box-sizing: border-box; -webkit-font-smoothing: antialiased; color: rgb(36, 36, 36); font-family: &amp;quot;Cascadia Mono&amp;quot;, Consolas, ui-monospace, Menlo, Monaco, monospace; font-size: 14px; font-style: normal; font-variant-ligatures: normal; font-variant-caps: normal; font-weight: 400; letter-spacing: normal; orphans: 2; text-align: start; text-indent: 0px; text-transform: none; widows: 2; word-spacing: 0px; -webkit-text-stroke-width: 0px; white-space: pre; background-color: rgb(255, 255, 255); text-decoration-thickness: initial; text-decoration-style: initial; text-decoration-color: initial;&quot;&gt;&lt;span style=&quot;color: rgb(36, 36, 36); font-family: &amp;quot;Cascadia Mono&amp;quot;, Consolas, ui-monospace, Menlo, Monaco, monospace; font-size: 14px; font-style: normal; font-variant-ligatures: normal; font-variant-caps: normal; font-weight: 400; letter-spacing: normal; orphans: 2; text-align: start; text-indent: 0px; text-transform: none; widows: 2; word-spacing: 0px; -webkit-text-stroke-width: 0px; white-space: pre; background-color: rgb(255, 255, 255); text-decoration-thickness: initial; text-decoration-style: initial; text-decoration-color: initial; display: inline !important; float: none;&quot;&gt;[&amp;nbsp;&amp;nbsp;809.121435]&amp;nbsp;&amp;nbsp;?&amp;nbsp;kernel_clone+0x103/0x380&lt;/span&gt;&lt;br style=&quot;box-sizing: border-box; -webkit-font-smoothing: antialiased; color: rgb(36, 36, 36); font-family: &amp;quot;Cascadia Mono&amp;quot;, Consolas, ui-monospace, Menlo, Monaco, monospace; font-size: 14px; font-style: normal; font-variant-ligatures: normal; font-variant-caps: normal; font-weight: 400; letter-spacing: normal; orphans: 2; text-align: start; text-indent: 0px; text-transform: none; widows: 2; word-spacing: 0px; -webkit-text-stroke-width: 0px; white-space: pre; background-color: rgb(255, 255, 255); text-decoration-thickness: initial; text-decoration-style: initial; text-decoration-color: initial;&quot;&gt;&lt;span style=&quot;color: rgb(36, 36, 36); font-family: &amp;quot;Cascadia Mono&amp;quot;, Consolas, ui-monospace, Menlo, Monaco, monospace; font-size: 14px; font-style: normal; font-variant-ligatures: normal; font-variant-caps: normal; font-weight: 400; letter-spacing: normal; orphans: 2; text-align: start; text-indent: 0px; text-transform: none; widows: 2; word-spacing: 0px; -webkit-text-stroke-width: 0px; white-space: pre; background-color: rgb(255, 255, 255); text-decoration-thickness: initial; text-decoration-style: initial; text-decoration-color: initial; display: inline !important; float: none;&quot;&gt;[&amp;nbsp;&amp;nbsp;809.121440]&amp;nbsp;&amp;nbsp;?&amp;nbsp;__x64_sys_ioctl+0x431/0x9b0&lt;/span&gt;&lt;br style=&quot;box-sizing: border-box; -webkit-font-smoothing: antialiased; color: rgb(36, 36, 36); font-family: &amp;quot;Cascadia Mono&amp;quot;, Consolas, ui-monospace, Menlo, Monaco, monospace; font-size: 14px; font-style: normal; font-variant-ligatures: normal; font-variant-caps: normal; font-weight: 400; letter-spacing: normal; orphans: 2; text-align: start; text-indent: 0px; text-transform: none; widows: 2; word-spacing: 0px; -webkit-text-stroke-width: 0px; white-space: pre; background-color: rgb(255, 255, 255); text-decoration-thickness: initial; text-decoration-style: initial; text-decoration-color: initial;&quot;&gt;&lt;span style=&quot;color: rgb(36, 36, 36); font-family: &amp;quot;Cascadia Mono&amp;quot;, Consolas, ui-monospace, Menlo, Monaco, monospace; font-size: 14px; font-style: normal; font-variant-ligatures: normal; font-variant-caps: normal; font-weight: 400; letter-spacing: normal; orphans: 2; text-align: start; text-indent: 0px; text-transform: none; widows: 2; word-spacing: 0px; -webkit-text-stroke-width: 0px; white-space: pre; background-color: rgb(255, 255, 255); text-decoration-thickness: initial; text-decoration-style: initial; text-decoration-color: initial; display: inline !important; float: none;&quot;&gt;[&amp;nbsp;&amp;nbsp;809.121444]&amp;nbsp;&amp;nbsp;__x64_sys_ioctl+0x431/0x9b0&lt;/span&gt;&lt;br style=&quot;box-sizing: border-box; -webkit-font-smoothing: antialiased; color: rgb(36, 36, 36); font-family: &amp;quot;Cascadia Mono&amp;quot;, Consolas, ui-monospace, Menlo, Monaco, monospace; font-size: 14px; font-style: normal; font-variant-ligatures: normal; font-variant-caps: normal; font-weight: 400; letter-spacing: normal; orphans: 2; text-align: start; text-indent: 0px; text-transform: none; widows: 2; word-spacing: 0px; -webkit-text-stroke-width: 0px; white-space: pre; background-color: rgb(255, 255, 255); text-decoration-thickness: initial; text-decoration-style: initial; text-decoration-color: initial;&quot;&gt;&lt;span style=&quot;color: rgb(36, 36, 36); font-family: &amp;quot;Cascadia Mono&amp;quot;, Consolas, ui-monospace, Menlo, Monaco, monospace; font-size: 14px; font-style: normal; font-variant-ligatures: normal; font-variant-caps: normal; font-weight: 400; letter-spacing: normal; orphans: 2; text-align: start; text-indent: 0px; text-transform: none; widows: 2; word-spacing: 0px; -webkit-text-stroke-width: 0px; white-space: pre; background-color: rgb(255, 255, 255); text-decoration-thickness: initial; text-decoration-style: initial; text-decoration-color: initial; display: inline !important; float: none;&quot;&gt;[&amp;nbsp;&amp;nbsp;809.121447]&amp;nbsp;&amp;nbsp;do_syscall_64+0x39/0x90&lt;/span&gt;&lt;br style=&quot;box-sizing: border-box; -webkit-font-smoothing: antialiased; color: rgb(36, 36, 36); font-family: &amp;quot;Cascadia Mono&amp;quot;, Consolas, ui-monospace, Menlo, Monaco, monospace; font-size: 14px; font-style: normal; font-variant-ligatures: normal; font-variant-caps: normal; font-weight: 400; letter-spacing: normal; orphans: 2; text-align: start; text-indent: 0px; text-transform: none; widows: 2; word-spacing: 0px; -webkit-text-stroke-width: 0px; white-space: pre; background-color: rgb(255, 255, 255); text-decoration-thickness: initial; text-decoration-style: initial; text-decoration-color: initial;&quot;&gt;&lt;span style=&quot;color: rgb(36, 36, 36); font-family: &amp;quot;Cascadia Mono&amp;quot;, Consolas, ui-monospace, Menlo, Monaco, monospace; font-size: 14px; font-style: normal; font-variant-ligatures: normal; font-variant-caps: normal; font-weight: 400; letter-spacing: normal; orphans: 2; text-align: start; text-indent: 0px; text-transform: none; widows: 2; word-spacing: 0px; -webkit-text-stroke-width: 0px; white-space: pre; background-color: rgb(255, 255, 255); text-decoration-thickness: initial; text-decoration-style: initial; text-decoration-color: initial; display: inline !important; float: none;&quot;&gt;[&amp;nbsp;&amp;nbsp;809.121450]&amp;nbsp;&amp;nbsp;entry_SYSCALL_64_after_hwframe+0x78/0xe2&lt;/span&gt;&lt;br style=&quot;box-sizing: border-box; -webkit-font-smoothing: antialiased; color: rgb(36, 36, 36); font-family: &amp;quot;Cascadia Mono&amp;quot;, Consolas, ui-monospace, Menlo, Monaco, monospace; font-size: 14px; font-style: normal; font-variant-ligatures: normal; font-variant-caps: normal; font-weight: 400; letter-spacing: normal; orphans: 2; text-align: start; text-indent: 0px; text-transform: none; widows: 2; word-spacing: 0px; -webkit-text-stroke-width: 0px; white-space: pre; background-color: rgb(255, 255, 255); text-decoration-thickness: initial; text-decoration-style: initial; text-decoration-color: initial;&quot;&gt;&lt;span style=&quot;color: rgb(36, 36, 36); font-family: &amp;quot;Cascadia Mono&amp;quot;, Consolas, ui-monospace, Menlo, Monaco, monospace; font-size: 14px; font-style: normal; font-variant-ligatures: normal; font-variant-caps: normal; font-weight: 400; letter-spacing: normal; orphans: 2; text-align: start; text-indent: 0px; text-transform: none; widows: 2; word-spacing: 0px; -webkit-text-stroke-width: 0px; white-space: pre; background-color: rgb(255, 255, 255); text-decoration-thickness: initial; text-decoration-style: initial; text-decoration-color: initial; display: inline !important; float: none;&quot;&gt;[&amp;nbsp;&amp;nbsp;809.121456]&amp;nbsp;RIP:&amp;nbsp;0033:0x7864f934fa8e&lt;/span&gt;&lt;br style=&quot;box-sizing: border-box; -webkit-font-smoothing: antialiased; color: rgb(36, 36, 36); font-family: &amp;quot;Cascadia Mono&amp;quot;, Consolas, ui-monospace, Menlo, Monaco, monospace; font-size: 14px; font-style: normal; font-variant-ligatures: normal; font-variant-caps: normal; font-weight: 400; letter-spacing: normal; orphans: 2; text-align: start; text-indent: 0px; text-transform: none; widows: 2; word-spacing: 0px; -webkit-text-stroke-width: 0px; white-space: pre; background-color: rgb(255, 255, 255); text-decoration-thickness: initial; text-decoration-style: initial; text-decoration-color: initial;&quot;&gt;&lt;span style=&quot;color: rgb(36, 36, 36); font-family: &amp;quot;Cascadia Mono&amp;quot;, Consolas, ui-monospace, Menlo, Monaco, monospace; font-size: 14px; font-style: normal; font-variant-ligatures: normal; font-variant-caps: normal; font-weight: 400; letter-spacing: normal; orphans: 2; text-align: start; text-indent: 0px; text-transform: none; widows: 2; word-spacing: 0px; -webkit-text-stroke-width: 0px; white-space: pre; background-color: rgb(255, 255, 255); text-decoration-thickness: initial; text-decoration-style: initial; text-decoration-color: initial; display: inline !important; float: none;&quot;&gt;[&amp;nbsp;&amp;nbsp;809.121459]&amp;nbsp;Code:&amp;nbsp;63&amp;nbsp;f6&amp;nbsp;48&amp;nbsp;8d&amp;nbsp;44&amp;nbsp;24&amp;nbsp;60&amp;nbsp;48&amp;nbsp;89&amp;nbsp;54&amp;nbsp;24&amp;nbsp;30&amp;nbsp;48&amp;nbsp;89&amp;nbsp;44&amp;nbsp;24&amp;nbsp;10&amp;nbsp;48&amp;nbsp;8d&amp;nbsp;44&amp;nbsp;24&amp;nbsp;20&amp;nbsp;48&amp;nbsp;89&amp;nbsp;44&amp;nbsp;24&amp;nbsp;18&amp;nbsp;b8&amp;nbsp;10&amp;nbsp;00&amp;nbsp;00&amp;nbsp;00&amp;nbsp;c7&amp;nbsp;44&amp;nbsp;24&amp;nbsp;08&amp;nbsp;10&amp;nbsp;00&amp;nbsp;00&amp;nbsp;00&amp;nbsp;0f&amp;nbsp;05&amp;nbsp;&amp;lt;48&amp;gt;&amp;nbsp;63&amp;nbsp;f8&amp;nbsp;e8&amp;nbsp;1a&amp;nbsp;e7&amp;nbsp;ff&amp;nbsp;ff&amp;nbsp;48&amp;nbsp;83&amp;nbsp;c4&amp;nbsp;58&amp;nbsp;c3&amp;nbsp;41&amp;nbsp;57&amp;nbsp;41&amp;nbsp;56&amp;nbsp;41&amp;nbsp;55&amp;nbsp;41&amp;nbsp;54&amp;nbsp;49&lt;/span&gt;&lt;br style=&quot;box-sizing: border-box; -webkit-font-smoothing: antialiased; color: rgb(36, 36, 36); font-family: &amp;quot;Cascadia Mono&amp;quot;, Consolas, ui-monospace, Menlo, Monaco, monospace; font-size: 14px; font-style: normal; font-variant-ligatures: normal; font-variant-caps: normal; font-weight: 400; letter-spacing: normal; orphans: 2; text-align: start; text-indent: 0px; text-transform: none; widows: 2; word-spacing: 0px; -webkit-text-stroke-width: 0px; white-space: pre; background-color: rgb(255, 255, 255); text-decoration-thickness: initial; text-decoration-style: initial; text-decoration-color: initial;&quot;&gt;&lt;span style=&quot;color: rgb(36, 36, 36); font-family: &amp;quot;Cascadia Mono&amp;quot;, Consolas, ui-monospace, Menlo, Monaco, monospace; font-size: 14px; font-style: normal; font-variant-ligatures: normal; font-variant-caps: normal; font-weight: 400; letter-spacing: normal; orphans: 2; text-align: start; text-indent: 0px; text-transform: none; widows: 2; word-spacing: 0px; -webkit-text-stroke-width: 0px; white-space: pre; background-color: rgb(255, 255, 255); text-decoration-thickness: initial; text-decoration-style: initial; text-decoration-color: initial; display: inline !important; float: none;&quot;&gt;[&amp;nbsp;&amp;nbsp;809.121460]&amp;nbsp;RSP:&amp;nbsp;002b:00007864f8fd2890&amp;nbsp;EFLAGS:&amp;nbsp;00000206&amp;nbsp;ORIG_RAX:&amp;nbsp;0000000000000010&lt;/span&gt;&lt;br style=&quot;box-sizing: border-box; -webkit-font-smoothing: antialiased; color: rgb(36, 36, 36); font-family: &amp;quot;Cascadia Mono&amp;quot;, Consolas, ui-monospace, Menlo, Monaco, monospace; font-size: 14px; font-style: normal; font-variant-ligatures: normal; font-variant-caps: normal; font-weight: 400; letter-spacing: normal; orphans: 2; text-align: start; text-indent: 0px; text-transform: none; widows: 2; word-spacing: 0px; -webkit-text-stroke-width: 0px; white-space: pre; background-color: rgb(255, 255, 255); text-decoration-thickness: initial; text-decoration-style: initial; text-decoration-color: initial;&quot;&gt;&lt;span style=&quot;color: rgb(36, 36, 36); font-family: &amp;quot;Cascadia Mono&amp;quot;, Consolas, ui-monospace, Menlo, Monaco, monospace; font-size: 14px; font-style: normal; font-variant-ligatures: normal; font-variant-caps: normal; font-weight: 400; letter-spacing: normal; orphans: 2; text-align: start; text-indent: 0px; text-transform: none; widows: 2; word-spacing: 0px; -webkit-text-stroke-width: 0px; white-space: pre; background-color: rgb(255, 255, 255); text-decoration-thickness: initial; text-decoration-style: initial; text-decoration-color: initial; display: inline !important; float: none;&quot;&gt;[&amp;nbsp;&amp;nbsp;809.121462]&amp;nbsp;RAX:&amp;nbsp;ffffffffffffffda&amp;nbsp;RBX:&amp;nbsp;00007864f954bed0&amp;nbsp;RCX:&amp;nbsp;00007864f934fa8e&lt;/span&gt;&lt;br style=&quot;box-sizing: border-box; -webkit-font-smoothing: antialiased; color: rgb(36, 36, 36); font-family: &amp;quot;Cascadia Mono&amp;quot;, Consolas, ui-monospace, Menlo, Monaco, monospace; font-size: 14px; font-style: normal; font-variant-ligatures: normal; font-variant-caps: normal; font-weight: 400; letter-spacing: normal; orphans: 2; text-align: start; text-indent: 0px; text-transform: none; widows: 2; word-spacing: 0px; -webkit-text-stroke-width: 0px; white-space: pre; background-color: rgb(255, 255, 255); text-decoration-thickness: initial; text-decoration-style: initial; text-decoration-color: initial;&quot;&gt;&lt;span style=&quot;color: rgb(36, 36, 36); font-family: &amp;quot;Cascadia Mono&amp;quot;, Consolas, ui-monospace, Menlo, Monaco, monospace; font-size: 14px; font-style: normal; font-variant-ligatures: normal; font-variant-caps: normal; font-weight: 400; letter-spacing: normal; orphans: 2; text-align: start; text-indent: 0px; text-transform: none; widows: 2; word-spacing: 0px; -webkit-text-stroke-width: 0px; white-space: pre; background-color: rgb(255, 255, 255); text-decoration-thickness: initial; text-decoration-style: initial; text-decoration-color: initial; display: inline !important; float: none;&quot;&gt;[&amp;nbsp;&amp;nbsp;809.121462]&amp;nbsp;RDX:&amp;nbsp;00007864f8fd2918&amp;nbsp;RSI:&amp;nbsp;000000004004b801&amp;nbsp;RDI:&amp;nbsp;0000000000000013&lt;/span&gt;&lt;br style=&quot;box-sizing: border-box; -webkit-font-smoothing: antialiased; color: rgb(36, 36, 36); font-family: &amp;quot;Cascadia Mono&amp;quot;, Consolas, ui-monospace, Menlo, Monaco, monospace; font-size: 14px; font-style: normal; font-variant-ligatures: normal; font-variant-caps: normal; font-weight: 400; letter-spacing: normal; orphans: 2; text-align: start; text-indent: 0px; text-transform: none; widows: 2; word-spacing: 0px; -webkit-text-stroke-width: 0px; white-space: pre; background-color: rgb(255, 255, 255); text-decoration-thickness: initial; text-decoration-style: initial; text-decoration-color: initial;&quot;&gt;&lt;span style=&quot;color: rgb(36, 36, 36); font-family: &amp;quot;Cascadia Mono&amp;quot;, Consolas, ui-monospace, Menlo, Monaco, monospace; font-size: 14px; font-style: normal; font-variant-ligatures: normal; font-variant-caps: normal; font-weight: 400; letter-spacing: normal; orphans: 2; text-align: start; text-indent: 0px; text-transform: none; widows: 2; word-spacing: 0px; -webkit-text-stroke-width: 0px; white-space: pre; background-color: rgb(255, 255, 255); text-decoration-thickness: initial; text-decoration-style: initial; text-decoration-color: initial; display: inline !important; float: none;&quot;&gt;[&amp;nbsp;&amp;nbsp;809.121463]&amp;nbsp;RBP:&amp;nbsp;0000000000000000&amp;nbsp;R08:&amp;nbsp;00007864f9470030&amp;nbsp;R09:&amp;nbsp;00007864f943f268&lt;/span&gt;&lt;br style=&quot;box-sizing: border-box; -webkit-font-smoothing: antialiased; color: rgb(36, 36, 36); font-family: &amp;quot;Cascadia Mono&amp;quot;, Consolas, ui-monospace, Menlo, Monaco, monospace; font-size: 14px; font-style: normal; font-variant-ligatures: normal; font-variant-caps: normal; font-weight: 400; letter-spacing: normal; orphans: 2; text-align: start; text-indent: 0px; text-transform: none; widows: 2; word-spacing: 0px; -webkit-text-stroke-width: 0px; white-space: pre; background-color: rgb(255, 255, 255); text-decoration-thickness: initial; text-decoration-style: initial; text-decoration-color: initial;&quot;&gt;&lt;span style=&quot;color: rgb(36, 36, 36); font-family: &amp;quot;Cascadia Mono&amp;quot;, Consolas, ui-monospace, Menlo, Monaco, monospace; font-size: 14px; font-style: normal; font-variant-ligatures: normal; font-variant-caps: normal; font-weight: 400; letter-spacing: normal; orphans: 2; text-align: start; text-indent: 0px; text-transform: none; widows: 2; word-spacing: 0px; -webkit-text-stroke-width: 0px; white-space: pre; background-color: rgb(255, 255, 255); text-decoration-thickness: initial; text-decoration-style: initial; text-decoration-color: initial; display: inline !important; float: none;&quot;&gt;[&amp;nbsp;&amp;nbsp;809.121464]&amp;nbsp;R10:&amp;nbsp;00007864f95484ac&amp;nbsp;R11:&amp;nbsp;0000000000000206&amp;nbsp;R12:&amp;nbsp;0000000000000000&lt;/span&gt;&lt;br style=&quot;box-sizing: border-box; -webkit-font-smoothing: antialiased; color: rgb(36, 36, 36); font-family: &amp;quot;Cascadia Mono&amp;quot;, Consolas, ui-monospace, Menlo, Monaco, monospace; font-size: 14px; font-style: normal; font-variant-ligatures: normal; font-variant-caps: normal; font-weight: 400; letter-spacing: normal; orphans: 2; text-align: start; text-indent: 0px; text-transform: none; widows: 2; word-spacing: 0px; -webkit-text-stroke-width: 0px; white-space: pre; background-color: rgb(255, 255, 255); text-decoration-thickness: initial; text-decoration-style: initial; text-decoration-color: initial;&quot;&gt;&lt;span style=&quot;color: rgb(36, 36, 36); font-family: &amp;quot;Cascadia Mono&amp;quot;, Consolas, ui-monospace, Menlo, Monaco, monospace; font-size: 14px; font-style: normal; font-variant-ligatures: normal; font-variant-caps: normal; font-weight: 400; letter-spacing: normal; orphans: 2; text-align: start; text-indent: 0px; text-transform: none; widows: 2; word-spacing: 0px; -webkit-text-stroke-width: 0px; white-space: pre; background-color: rgb(255, 255, 255); text-decoration-thickness: initial; text-decoration-style: initial; text-decoration-color: initial; display: inline !important; float: none;&quot;&gt;[&amp;nbsp;&amp;nbsp;809.121464]&amp;nbsp;R13:&amp;nbsp;00007864f954cc70&amp;nbsp;R14:&amp;nbsp;00007864f9470030&amp;nbsp;R15:&amp;nbsp;00007864f8fd3250&lt;/span&gt;&lt;br style=&quot;box-sizing: border-box; -webkit-font-smoothing: antialiased; color: rgb(36, 36, 36); font-family: &amp;quot;Cascadia Mono&amp;quot;, Consolas, ui-monospace, Menlo, Monaco, monospace; font-size: 14px; font-style: normal; font-variant-ligatures: normal; font-variant-caps: normal; font-weight: 400; letter-spacing: normal; orphans: 2; text-align: start; text-indent: 0px; text-transform: none; widows: 2; word-spacing: 0px; -webkit-text-stroke-width: 0px; white-space: pre; background-color: rgb(255, 255, 255); text-decoration-thickness: initial; text-decoration-style: initial; text-decoration-color: initial;&quot;&gt;&lt;span style=&quot;color: rgb(36, 36, 36); font-family: &amp;quot;Cascadia Mono&amp;quot;, Consolas, ui-monospace, Menlo, Monaco, monospace; font-size: 14px; font-style: normal; font-variant-ligatures: normal; font-variant-caps: normal; font-weight: 400; letter-spacing: normal; orphans: 2; text-align: start; text-indent: 0px; text-transform: none; widows: 2; word-spacing: 0px; -webkit-text-stroke-width: 0px; white-space: pre; background-color: rgb(255, 255, 255); text-decoration-thickness: initial; text-decoration-style: initial; text-decoration-color: initial; display: inline !important; float: none;&quot;&gt;[&amp;nbsp;&amp;nbsp;809.121466]&amp;nbsp;&amp;nbsp;&amp;lt;/TASK&amp;gt;&lt;/span&gt;" id="-KUxn2SXB9C2YqueNw4e-8">
          <mxCell style="text;whiteSpace=wrap;html=1;" vertex="1" parent="1">
            <mxGeometry x="60" y="640" width="560" height="630" as="geometry" />
          </mxCell>
        </UserObject>
        <mxCell id="-KUxn2SXB9C2YqueNw4e-9" value="&lt;b&gt;Problem 4:&amp;nbsp; Eventfd problem&lt;br&gt;&lt;br&gt;QEMU&amp;nbsp;&lt;/b&gt;L1VH Guest with &lt;b&gt;NVMe PT &lt;/b&gt;on Lab machine&lt;br&gt;&lt;br&gt;QEMU:" style="text;html=1;whiteSpace=wrap;strokeColor=none;fillColor=none;align=left;verticalAlign=middle;rounded=0;" vertex="1" parent="1">
          <mxGeometry x="60" y="1270" width="690" height="80" as="geometry" />
        </mxCell>
        <UserObject label="&lt;span style=&quot;color: rgb(36, 36, 36); font-family: &amp;quot;Cascadia Mono&amp;quot;, Consolas, ui-monospace, Menlo, Monaco, monospace; font-size: 14px; font-style: normal; font-variant-ligatures: normal; font-variant-caps: normal; font-weight: 400; letter-spacing: normal; orphans: 2; text-align: start; text-indent: 0px; text-transform: none; widows: 2; word-spacing: 0px; -webkit-text-stroke-width: 0px; white-space: pre; background-color: rgb(255, 255, 255); text-decoration-thickness: initial; text-decoration-style: initial; text-decoration-color: initial; display: inline !important; float: none;&quot;&gt;$&amp;nbsp;&lt;/span&gt;&lt;span class=&quot;hljs-function&quot; style=&quot;box-sizing: border-box; -webkit-font-smoothing: antialiased; color: rgb(188, 47, 50); font-family: &amp;quot;Cascadia Mono&amp;quot;, Consolas, ui-monospace, Menlo, Monaco, monospace; font-size: 14px; font-style: normal; font-variant-ligatures: normal; font-variant-caps: normal; font-weight: 400; letter-spacing: normal; orphans: 2; text-align: start; text-indent: 0px; text-transform: none; widows: 2; word-spacing: 0px; -webkit-text-stroke-width: 0px; white-space: pre; background-color: rgb(255, 255, 255); text-decoration-thickness: initial; text-decoration-style: initial; text-decoration-color: initial;&quot;&gt;sudo&lt;/span&gt;&lt;span style=&quot;color: rgb(36, 36, 36); font-family: &amp;quot;Cascadia Mono&amp;quot;, Consolas, ui-monospace, Menlo, Monaco, monospace; font-size: 14px; font-style: normal; font-variant-ligatures: normal; font-variant-caps: normal; font-weight: 400; letter-spacing: normal; orphans: 2; text-align: start; text-indent: 0px; text-transform: none; widows: 2; word-spacing: 0px; -webkit-text-stroke-width: 0px; white-space: pre; background-color: rgb(255, 255, 255); text-decoration-thickness: initial; text-decoration-style: initial; text-decoration-color: initial; display: inline !important; float: none;&quot;&gt;&amp;nbsp;/home/cloud/qemu/src/build/qemu-system-x86_64&amp;nbsp;-&lt;/span&gt;&lt;br style=&quot;box-sizing: border-box; -webkit-font-smoothing: antialiased; color: rgb(36, 36, 36); font-family: &amp;quot;Cascadia Mono&amp;quot;, Consolas, ui-monospace, Menlo, Monaco, monospace; font-size: 14px; font-style: normal; font-variant-ligatures: normal; font-variant-caps: normal; font-weight: 400; letter-spacing: normal; orphans: 2; text-align: start; text-indent: 0px; text-transform: none; widows: 2; word-spacing: 0px; -webkit-text-stroke-width: 0px; white-space: pre; background-color: rgb(255, 255, 255); text-decoration-thickness: initial; text-decoration-style: initial; text-decoration-color: initial;&quot;&gt;&lt;span style=&quot;color: rgb(36, 36, 36); font-family: &amp;quot;Cascadia Mono&amp;quot;, Consolas, ui-monospace, Menlo, Monaco, monospace; font-size: 14px; font-style: normal; font-variant-ligatures: normal; font-variant-caps: normal; font-weight: 400; letter-spacing: normal; orphans: 2; text-align: start; text-indent: 0px; text-transform: none; widows: 2; word-spacing: 0px; -webkit-text-stroke-width: 0px; white-space: pre; background-color: rgb(255, 255, 255); text-decoration-thickness: initial; text-decoration-style: initial; text-decoration-color: initial; display: inline !important; float: none;&quot;&gt;machine&amp;nbsp;q35&amp;nbsp;-nographic&amp;nbsp;-m&amp;nbsp;2816M&amp;nbsp;-accel&amp;nbsp;mshv&amp;nbsp;-smp&amp;nbsp;cpus=2&amp;nbsp;-serial&amp;nbsp;file:/home/cloud&lt;/span&gt;&lt;br style=&quot;box-sizing: border-box; -webkit-font-smoothing: antialiased; color: rgb(36, 36, 36); font-family: &amp;quot;Cascadia Mono&amp;quot;, Consolas, ui-monospace, Menlo, Monaco, monospace; font-size: 14px; font-style: normal; font-variant-ligatures: normal; font-variant-caps: normal; font-weight: 400; letter-spacing: normal; orphans: 2; text-align: start; text-indent: 0px; text-transform: none; widows: 2; word-spacing: 0px; -webkit-text-stroke-width: 0px; white-space: pre; background-color: rgb(255, 255, 255); text-decoration-thickness: initial; text-decoration-style: initial; text-decoration-color: initial;&quot;&gt;&lt;span style=&quot;color: rgb(36, 36, 36); font-family: &amp;quot;Cascadia Mono&amp;quot;, Consolas, ui-monospace, Menlo, Monaco, monospace; font-size: 14px; font-style: normal; font-variant-ligatures: normal; font-variant-caps: normal; font-weight: 400; letter-spacing: normal; orphans: 2; text-align: start; text-indent: 0px; text-transform: none; widows: 2; word-spacing: 0px; -webkit-text-stroke-width: 0px; white-space: pre; background-color: rgb(255, 255, 255); text-decoration-thickness: initial; text-decoration-style: initial; text-decoration-color: initial; display: inline !important; float: none;&quot;&gt;/qemu/serial.log&amp;nbsp;-device&amp;nbsp;vfio-pci,host=024b:00:00.0&amp;nbsp;-rtc&amp;nbsp;clock=vm&lt;/span&gt;&lt;br style=&quot;box-sizing: border-box; -webkit-font-smoothing: antialiased; color: rgb(36, 36, 36); font-family: &amp;quot;Cascadia Mono&amp;quot;, Consolas, ui-monospace, Menlo, Monaco, monospace; font-size: 14px; font-style: normal; font-variant-ligatures: normal; font-variant-caps: normal; font-weight: 400; letter-spacing: normal; orphans: 2; text-align: start; text-indent: 0px; text-transform: none; widows: 2; word-spacing: 0px; -webkit-text-stroke-width: 0px; white-space: pre; background-color: rgb(255, 255, 255); text-decoration-thickness: initial; text-decoration-style: initial; text-decoration-color: initial;&quot;&gt;&lt;span style=&quot;color: rgb(36, 36, 36); font-family: &amp;quot;Cascadia Mono&amp;quot;, Consolas, ui-monospace, Menlo, Monaco, monospace; font-size: 14px; font-style: normal; font-variant-ligatures: normal; font-variant-caps: normal; font-weight: 400; letter-spacing: normal; orphans: 2; text-align: start; text-indent: 0px; text-transform: none; widows: 2; word-spacing: 0px; -webkit-text-stroke-width: 0px; white-space: pre; background-color: rgb(255, 255, 255); text-decoration-thickness: initial; text-decoration-style: initial; text-decoration-color: initial; display: inline !important; float: none;&quot;&gt;QEMU&amp;nbsp;10.1.50&amp;nbsp;monitor&amp;nbsp;-&amp;nbsp;&lt;/span&gt;&lt;span class=&quot;hljs-function&quot; style=&quot;box-sizing: border-box; -webkit-font-smoothing: antialiased; color: rgb(188, 47, 50); font-family: &amp;quot;Cascadia Mono&amp;quot;, Consolas, ui-monospace, Menlo, Monaco, monospace; font-size: 14px; font-style: normal; font-variant-ligatures: normal; font-variant-caps: normal; font-weight: 400; letter-spacing: normal; orphans: 2; text-align: start; text-indent: 0px; text-transform: none; widows: 2; word-spacing: 0px; -webkit-text-stroke-width: 0px; white-space: pre; background-color: rgb(255, 255, 255); text-decoration-thickness: initial; text-decoration-style: initial; text-decoration-color: initial;&quot;&gt;type&lt;/span&gt;&lt;span style=&quot;color: rgb(36, 36, 36); font-family: &amp;quot;Cascadia Mono&amp;quot;, Consolas, ui-monospace, Menlo, Monaco, monospace; font-size: 14px; font-style: normal; font-variant-ligatures: normal; font-variant-caps: normal; font-weight: 400; letter-spacing: normal; orphans: 2; text-align: start; text-indent: 0px; text-transform: none; widows: 2; word-spacing: 0px; -webkit-text-stroke-width: 0px; white-space: pre; background-color: rgb(255, 255, 255); text-decoration-thickness: initial; text-decoration-style: initial; text-decoration-color: initial; display: inline !important; float: none;&quot;&gt;&amp;nbsp;&lt;/span&gt;&lt;span class=&quot;hljs-string&quot; style=&quot;box-sizing: border-box; -webkit-font-smoothing: antialiased; color: rgb(14, 112, 14); font-family: &amp;quot;Cascadia Mono&amp;quot;, Consolas, ui-monospace, Menlo, Monaco, monospace; font-size: 14px; font-style: normal; font-variant-ligatures: normal; font-variant-caps: normal; font-weight: 400; letter-spacing: normal; orphans: 2; text-align: start; text-indent: 0px; text-transform: none; widows: 2; word-spacing: 0px; -webkit-text-stroke-width: 0px; white-space: pre; background-color: rgb(255, 255, 255); text-decoration-thickness: initial; text-decoration-style: initial; text-decoration-color: initial;&quot;&gt;&#39;help&#39;&lt;/span&gt;&lt;span style=&quot;color: rgb(36, 36, 36); font-family: &amp;quot;Cascadia Mono&amp;quot;, Consolas, ui-monospace, Menlo, Monaco, monospace; font-size: 14px; font-style: normal; font-variant-ligatures: normal; font-variant-caps: normal; font-weight: 400; letter-spacing: normal; orphans: 2; text-align: start; text-indent: 0px; text-transform: none; widows: 2; word-spacing: 0px; -webkit-text-stroke-width: 0px; white-space: pre; background-color: rgb(255, 255, 255); text-decoration-thickness: initial; text-decoration-style: initial; text-decoration-color: initial; display: inline !important; float: none;&quot;&gt;&amp;nbsp;&lt;/span&gt;&lt;span class=&quot;hljs-keyword&quot; style=&quot;box-sizing: border-box; -webkit-font-smoothing: antialiased; color: rgb(79, 82, 178); font-family: &amp;quot;Cascadia Mono&amp;quot;, Consolas, ui-monospace, Menlo, Monaco, monospace; font-size: 14px; font-style: normal; font-variant-ligatures: normal; font-variant-caps: normal; font-weight: 400; letter-spacing: normal; orphans: 2; text-align: start; text-indent: 0px; text-transform: none; widows: 2; word-spacing: 0px; -webkit-text-stroke-width: 0px; white-space: pre; background-color: rgb(255, 255, 255); text-decoration-thickness: initial; text-decoration-style: initial; text-decoration-color: initial;&quot;&gt;for&lt;/span&gt;&lt;span style=&quot;color: rgb(36, 36, 36); font-family: &amp;quot;Cascadia Mono&amp;quot;, Consolas, ui-monospace, Menlo, Monaco, monospace; font-size: 14px; font-style: normal; font-variant-ligatures: normal; font-variant-caps: normal; font-weight: 400; letter-spacing: normal; orphans: 2; text-align: start; text-indent: 0px; text-transform: none; widows: 2; word-spacing: 0px; -webkit-text-stroke-width: 0px; white-space: pre; background-color: rgb(255, 255, 255); text-decoration-thickness: initial; text-decoration-style: initial; text-decoration-color: initial; display: inline !important; float: none;&quot;&gt;&amp;nbsp;more&amp;nbsp;information&lt;/span&gt;&lt;br style=&quot;box-sizing: border-box; -webkit-font-smoothing: antialiased; color: rgb(36, 36, 36); font-family: &amp;quot;Cascadia Mono&amp;quot;, Consolas, ui-monospace, Menlo, Monaco, monospace; font-size: 14px; font-style: normal; font-variant-ligatures: normal; font-variant-caps: normal; font-weight: 400; letter-spacing: normal; orphans: 2; text-align: start; text-indent: 0px; text-transform: none; widows: 2; word-spacing: 0px; -webkit-text-stroke-width: 0px; white-space: pre; background-color: rgb(255, 255, 255); text-decoration-thickness: initial; text-decoration-style: initial; text-decoration-color: initial;&quot;&gt;&lt;span style=&quot;color: rgb(36, 36, 36); font-family: &amp;quot;Cascadia Mono&amp;quot;, Consolas, ui-monospace, Menlo, Monaco, monospace; font-size: 14px; font-style: normal; font-variant-ligatures: normal; font-variant-caps: normal; font-weight: 400; letter-spacing: normal; orphans: 2; text-align: start; text-indent: 0px; text-transform: none; widows: 2; word-spacing: 0px; -webkit-text-stroke-width: 0px; white-space: pre; background-color: rgb(255, 255, 255); text-decoration-thickness: initial; text-decoration-style: initial; text-decoration-color: initial; display: inline !important; float: none;&quot;&gt;qemu-system-x86_64:&amp;nbsp;-device&amp;nbsp;vfio-pci,host=024b:00:00.0:&amp;nbsp;vfio&amp;nbsp;024b:00:00.0:&amp;nbsp;Failed&amp;nbsp;to&amp;nbsp;&lt;/span&gt;&lt;span class=&quot;hljs-function&quot; style=&quot;box-sizing: border-box; -webkit-font-smoothing: antialiased; color: rgb(188, 47, 50); font-family: &amp;quot;Cascadia Mono&amp;quot;, Consolas, ui-monospace, Menlo, Monaco, monospace; font-size: 14px; font-style: normal; font-variant-ligatures: normal; font-variant-caps: normal; font-weight: 400; letter-spacing: normal; orphans: 2; text-align: start; text-indent: 0px; text-transform: none; widows: 2; word-spacing: 0px; -webkit-text-stroke-width: 0px; white-space: pre; background-color: rgb(255, 255, 255); text-decoration-thickness: initial; text-decoration-style: initial; text-decoration-color: initial;&quot;&gt;set&lt;/span&gt;&lt;span style=&quot;color: rgb(36, 36, 36); font-family: &amp;quot;Cascadia Mono&amp;quot;, Consolas, ui-monospace, Menlo, Monaco, monospace; font-size: 14px; font-style: normal; font-variant-ligatures: normal; font-variant-caps: normal; font-weight: 400; letter-spacing: normal; orphans: 2; text-align: start; text-indent: 0px; text-transform: none; widows: 2; word-spacing: 0px; -webkit-text-stroke-width: 0px; white-space: pre; background-color: rgb(255, 255, 255); text-decoration-thickness: initial; text-decoration-style: initial; text-decoration-color: initial; display: inline !important; float: none;&quot;&gt;&amp;nbsp;up&amp;nbsp;TRIGGER&amp;nbsp;eventfd&amp;nbsp;signaling&amp;nbsp;&lt;/span&gt;&lt;span class=&quot;hljs-keyword&quot; style=&quot;box-sizing: border-box; -webkit-font-smoothing: antialiased; color: rgb(79, 82, 178); font-family: &amp;quot;Cascadia Mono&amp;quot;, Consolas, ui-monospace, Menlo, Monaco, monospace; font-size: 14px; font-style: normal; font-variant-ligatures: normal; font-variant-caps: normal; font-weight: 400; letter-spacing: normal; orphans: 2; text-align: start; text-indent: 0px; text-transform: none; widows: 2; word-spacing: 0px; -webkit-text-stroke-width: 0px; white-space: pre; background-color: rgb(255, 255, 255); text-decoration-thickness: initial; text-decoration-style: initial; text-decoration-color: initial;&quot;&gt;for&lt;/span&gt;&lt;span style=&quot;color: rgb(36, 36, 36); font-family: &amp;quot;Cascadia Mono&amp;quot;, Consolas, ui-monospace, Menlo, Monaco, monospace; font-size: 14px; font-style: normal; font-variant-ligatures: normal; font-variant-caps: normal; font-weight: 400; letter-spacing: normal; orphans: 2; text-align: start; text-indent: 0px; text-transform: none; widows: 2; word-spacing: 0px; -webkit-text-stroke-width: 0px; white-space: pre; background-color: rgb(255, 255, 255); text-decoration-thickness: initial; text-decoration-style: initial; text-decoration-color: initial; display: inline !important; float: none;&quot;&gt;&amp;nbsp;interrupt&amp;nbsp;INTX-0:&amp;nbsp;VFIO_DEVICE_SET_IRQS&lt;/span&gt;&lt;br style=&quot;box-sizing: border-box; -webkit-font-smoothing: antialiased; color: rgb(36, 36, 36); font-family: &amp;quot;Cascadia Mono&amp;quot;, Consolas, ui-monospace, Menlo, Monaco, monospace; font-size: 14px; font-style: normal; font-variant-ligatures: normal; font-variant-caps: normal; font-weight: 400; letter-spacing: normal; orphans: 2; text-align: start; text-indent: 0px; text-transform: none; widows: 2; word-spacing: 0px; -webkit-text-stroke-width: 0px; white-space: pre; background-color: rgb(255, 255, 255); text-decoration-thickness: initial; text-decoration-style: initial; text-decoration-color: initial;&quot;&gt;&lt;span style=&quot;color: rgb(36, 36, 36); font-family: &amp;quot;Cascadia Mono&amp;quot;, Consolas, ui-monospace, Menlo, Monaco, monospace; font-size: 14px; font-style: normal; font-variant-ligatures: normal; font-variant-caps: normal; font-weight: 400; letter-spacing: normal; orphans: 2; text-align: start; text-indent: 0px; text-transform: none; widows: 2; word-spacing: 0px; -webkit-text-stroke-width: 0px; white-space: pre; background-color: rgb(255, 255, 255); text-decoration-thickness: initial; text-decoration-style: initial; text-decoration-color: initial; display: inline !important; float: none;&quot;&gt; failure:&amp;nbsp;No&amp;nbsp;such&amp;nbsp;device&lt;/span&gt;" link="&lt;span style=&quot;color: rgb(36, 36, 36); font-family: &amp;quot;Cascadia Mono&amp;quot;, Consolas, ui-monospace, Menlo, Monaco, monospace; font-size: 14px; font-style: normal; font-variant-ligatures: normal; font-variant-caps: normal; font-weight: 400; letter-spacing: normal; orphans: 2; text-align: start; text-indent: 0px; text-transform: none; widows: 2; word-spacing: 0px; -webkit-text-stroke-width: 0px; white-space: pre; background-color: rgb(255, 255, 255); text-decoration-thickness: initial; text-decoration-style: initial; text-decoration-color: initial; display: inline !important; float: none;&quot;&gt;$&amp;nbsp;&lt;/span&gt;&lt;span class=&quot;hljs-function&quot; style=&quot;box-sizing: border-box; -webkit-font-smoothing: antialiased; color: rgb(188, 47, 50); font-family: &amp;quot;Cascadia Mono&amp;quot;, Consolas, ui-monospace, Menlo, Monaco, monospace; font-size: 14px; font-style: normal; font-variant-ligatures: normal; font-variant-caps: normal; font-weight: 400; letter-spacing: normal; orphans: 2; text-align: start; text-indent: 0px; text-transform: none; widows: 2; word-spacing: 0px; -webkit-text-stroke-width: 0px; white-space: pre; background-color: rgb(255, 255, 255); text-decoration-thickness: initial; text-decoration-style: initial; text-decoration-color: initial;&quot;&gt;sudo&lt;/span&gt;&lt;span style=&quot;color: rgb(36, 36, 36); font-family: &amp;quot;Cascadia Mono&amp;quot;, Consolas, ui-monospace, Menlo, Monaco, monospace; font-size: 14px; font-style: normal; font-variant-ligatures: normal; font-variant-caps: normal; font-weight: 400; letter-spacing: normal; orphans: 2; text-align: start; text-indent: 0px; text-transform: none; widows: 2; word-spacing: 0px; -webkit-text-stroke-width: 0px; white-space: pre; background-color: rgb(255, 255, 255); text-decoration-thickness: initial; text-decoration-style: initial; text-decoration-color: initial; display: inline !important; float: none;&quot;&gt;&amp;nbsp;/home/cloud/qemu/src/build/qemu-system-x86_64&amp;nbsp;-&lt;/span&gt;&lt;br style=&quot;box-sizing: border-box; -webkit-font-smoothing: antialiased; color: rgb(36, 36, 36); font-family: &amp;quot;Cascadia Mono&amp;quot;, Consolas, ui-monospace, Menlo, Monaco, monospace; font-size: 14px; font-style: normal; font-variant-ligatures: normal; font-variant-caps: normal; font-weight: 400; letter-spacing: normal; orphans: 2; text-align: start; text-indent: 0px; text-transform: none; widows: 2; word-spacing: 0px; -webkit-text-stroke-width: 0px; white-space: pre; background-color: rgb(255, 255, 255); text-decoration-thickness: initial; text-decoration-style: initial; text-decoration-color: initial;&quot;&gt;&lt;span style=&quot;color: rgb(36, 36, 36); font-family: &amp;quot;Cascadia Mono&amp;quot;, Consolas, ui-monospace, Menlo, Monaco, monospace; font-size: 14px; font-style: normal; font-variant-ligatures: normal; font-variant-caps: normal; font-weight: 400; letter-spacing: normal; orphans: 2; text-align: start; text-indent: 0px; text-transform: none; widows: 2; word-spacing: 0px; -webkit-text-stroke-width: 0px; white-space: pre; background-color: rgb(255, 255, 255); text-decoration-thickness: initial; text-decoration-style: initial; text-decoration-color: initial; display: inline !important; float: none;&quot;&gt;machine&amp;nbsp;q35&amp;nbsp;-nographic&amp;nbsp;-m&amp;nbsp;2816M&amp;nbsp;-accel&amp;nbsp;mshv&amp;nbsp;-smp&amp;nbsp;cpus=2&amp;nbsp;-serial&amp;nbsp;file:/home/cloud&lt;/span&gt;&lt;br style=&quot;box-sizing: border-box; -webkit-font-smoothing: antialiased; color: rgb(36, 36, 36); font-family: &amp;quot;Cascadia Mono&amp;quot;, Consolas, ui-monospace, Menlo, Monaco, monospace; font-size: 14px; font-style: normal; font-variant-ligatures: normal; font-variant-caps: normal; font-weight: 400; letter-spacing: normal; orphans: 2; text-align: start; text-indent: 0px; text-transform: none; widows: 2; word-spacing: 0px; -webkit-text-stroke-width: 0px; white-space: pre; background-color: rgb(255, 255, 255); text-decoration-thickness: initial; text-decoration-style: initial; text-decoration-color: initial;&quot;&gt;&lt;span style=&quot;color: rgb(36, 36, 36); font-family: &amp;quot;Cascadia Mono&amp;quot;, Consolas, ui-monospace, Menlo, Monaco, monospace; font-size: 14px; font-style: normal; font-variant-ligatures: normal; font-variant-caps: normal; font-weight: 400; letter-spacing: normal; orphans: 2; text-align: start; text-indent: 0px; text-transform: none; widows: 2; word-spacing: 0px; -webkit-text-stroke-width: 0px; white-space: pre; background-color: rgb(255, 255, 255); text-decoration-thickness: initial; text-decoration-style: initial; text-decoration-color: initial; display: inline !important; float: none;&quot;&gt;/qemu/serial.log&amp;nbsp;-device&amp;nbsp;vfio-pci,host=024b:00:00.0&amp;nbsp;-rtc&amp;nbsp;clock=vm&lt;/span&gt;&lt;br style=&quot;box-sizing: border-box; -webkit-font-smoothing: antialiased; color: rgb(36, 36, 36); font-family: &amp;quot;Cascadia Mono&amp;quot;, Consolas, ui-monospace, Menlo, Monaco, monospace; font-size: 14px; font-style: normal; font-variant-ligatures: normal; font-variant-caps: normal; font-weight: 400; letter-spacing: normal; orphans: 2; text-align: start; text-indent: 0px; text-transform: none; widows: 2; word-spacing: 0px; -webkit-text-stroke-width: 0px; white-space: pre; background-color: rgb(255, 255, 255); text-decoration-thickness: initial; text-decoration-style: initial; text-decoration-color: initial;&quot;&gt;&lt;span style=&quot;color: rgb(36, 36, 36); font-family: &amp;quot;Cascadia Mono&amp;quot;, Consolas, ui-monospace, Menlo, Monaco, monospace; font-size: 14px; font-style: normal; font-variant-ligatures: normal; font-variant-caps: normal; font-weight: 400; letter-spacing: normal; orphans: 2; text-align: start; text-indent: 0px; text-transform: none; widows: 2; word-spacing: 0px; -webkit-text-stroke-width: 0px; white-space: pre; background-color: rgb(255, 255, 255); text-decoration-thickness: initial; text-decoration-style: initial; text-decoration-color: initial; display: inline !important; float: none;&quot;&gt;QEMU&amp;nbsp;10.1.50&amp;nbsp;monitor&amp;nbsp;-&amp;nbsp;&lt;/span&gt;&lt;span class=&quot;hljs-function&quot; style=&quot;box-sizing: border-box; -webkit-font-smoothing: antialiased; color: rgb(188, 47, 50); font-family: &amp;quot;Cascadia Mono&amp;quot;, Consolas, ui-monospace, Menlo, Monaco, monospace; font-size: 14px; font-style: normal; font-variant-ligatures: normal; font-variant-caps: normal; font-weight: 400; letter-spacing: normal; orphans: 2; text-align: start; text-indent: 0px; text-transform: none; widows: 2; word-spacing: 0px; -webkit-text-stroke-width: 0px; white-space: pre; background-color: rgb(255, 255, 255); text-decoration-thickness: initial; text-decoration-style: initial; text-decoration-color: initial;&quot;&gt;type&lt;/span&gt;&lt;span style=&quot;color: rgb(36, 36, 36); font-family: &amp;quot;Cascadia Mono&amp;quot;, Consolas, ui-monospace, Menlo, Monaco, monospace; font-size: 14px; font-style: normal; font-variant-ligatures: normal; font-variant-caps: normal; font-weight: 400; letter-spacing: normal; orphans: 2; text-align: start; text-indent: 0px; text-transform: none; widows: 2; word-spacing: 0px; -webkit-text-stroke-width: 0px; white-space: pre; background-color: rgb(255, 255, 255); text-decoration-thickness: initial; text-decoration-style: initial; text-decoration-color: initial; display: inline !important; float: none;&quot;&gt;&amp;nbsp;&lt;/span&gt;&lt;span class=&quot;hljs-string&quot; style=&quot;box-sizing: border-box; -webkit-font-smoothing: antialiased; color: rgb(14, 112, 14); font-family: &amp;quot;Cascadia Mono&amp;quot;, Consolas, ui-monospace, Menlo, Monaco, monospace; font-size: 14px; font-style: normal; font-variant-ligatures: normal; font-variant-caps: normal; font-weight: 400; letter-spacing: normal; orphans: 2; text-align: start; text-indent: 0px; text-transform: none; widows: 2; word-spacing: 0px; -webkit-text-stroke-width: 0px; white-space: pre; background-color: rgb(255, 255, 255); text-decoration-thickness: initial; text-decoration-style: initial; text-decoration-color: initial;&quot;&gt;&#39;help&#39;&lt;/span&gt;&lt;span style=&quot;color: rgb(36, 36, 36); font-family: &amp;quot;Cascadia Mono&amp;quot;, Consolas, ui-monospace, Menlo, Monaco, monospace; font-size: 14px; font-style: normal; font-variant-ligatures: normal; font-variant-caps: normal; font-weight: 400; letter-spacing: normal; orphans: 2; text-align: start; text-indent: 0px; text-transform: none; widows: 2; word-spacing: 0px; -webkit-text-stroke-width: 0px; white-space: pre; background-color: rgb(255, 255, 255); text-decoration-thickness: initial; text-decoration-style: initial; text-decoration-color: initial; display: inline !important; float: none;&quot;&gt;&amp;nbsp;&lt;/span&gt;&lt;span class=&quot;hljs-keyword&quot; style=&quot;box-sizing: border-box; -webkit-font-smoothing: antialiased; color: rgb(79, 82, 178); font-family: &amp;quot;Cascadia Mono&amp;quot;, Consolas, ui-monospace, Menlo, Monaco, monospace; font-size: 14px; font-style: normal; font-variant-ligatures: normal; font-variant-caps: normal; font-weight: 400; letter-spacing: normal; orphans: 2; text-align: start; text-indent: 0px; text-transform: none; widows: 2; word-spacing: 0px; -webkit-text-stroke-width: 0px; white-space: pre; background-color: rgb(255, 255, 255); text-decoration-thickness: initial; text-decoration-style: initial; text-decoration-color: initial;&quot;&gt;for&lt;/span&gt;&lt;span style=&quot;color: rgb(36, 36, 36); font-family: &amp;quot;Cascadia Mono&amp;quot;, Consolas, ui-monospace, Menlo, Monaco, monospace; font-size: 14px; font-style: normal; font-variant-ligatures: normal; font-variant-caps: normal; font-weight: 400; letter-spacing: normal; orphans: 2; text-align: start; text-indent: 0px; text-transform: none; widows: 2; word-spacing: 0px; -webkit-text-stroke-width: 0px; white-space: pre; background-color: rgb(255, 255, 255); text-decoration-thickness: initial; text-decoration-style: initial; text-decoration-color: initial; display: inline !important; float: none;&quot;&gt;&amp;nbsp;more&amp;nbsp;information&lt;/span&gt;&lt;br style=&quot;box-sizing: border-box; -webkit-font-smoothing: antialiased; color: rgb(36, 36, 36); font-family: &amp;quot;Cascadia Mono&amp;quot;, Consolas, ui-monospace, Menlo, Monaco, monospace; font-size: 14px; font-style: normal; font-variant-ligatures: normal; font-variant-caps: normal; font-weight: 400; letter-spacing: normal; orphans: 2; text-align: start; text-indent: 0px; text-transform: none; widows: 2; word-spacing: 0px; -webkit-text-stroke-width: 0px; white-space: pre; background-color: rgb(255, 255, 255); text-decoration-thickness: initial; text-decoration-style: initial; text-decoration-color: initial;&quot;&gt;&lt;span style=&quot;color: rgb(36, 36, 36); font-family: &amp;quot;Cascadia Mono&amp;quot;, Consolas, ui-monospace, Menlo, Monaco, monospace; font-size: 14px; font-style: normal; font-variant-ligatures: normal; font-variant-caps: normal; font-weight: 400; letter-spacing: normal; orphans: 2; text-align: start; text-indent: 0px; text-transform: none; widows: 2; word-spacing: 0px; -webkit-text-stroke-width: 0px; white-space: pre; background-color: rgb(255, 255, 255); text-decoration-thickness: initial; text-decoration-style: initial; text-decoration-color: initial; display: inline !important; float: none;&quot;&gt;qemu-system-x86_64:&amp;nbsp;-device&amp;nbsp;vfio-pci,host=024b:00:00.0:&amp;nbsp;vfio&amp;nbsp;024b:00:00.0:&amp;nbsp;Failed&amp;nbsp;to&amp;nbsp;&lt;/span&gt;&lt;span class=&quot;hljs-function&quot; style=&quot;box-sizing: border-box; -webkit-font-smoothing: antialiased; color: rgb(188, 47, 50); font-family: &amp;quot;Cascadia Mono&amp;quot;, Consolas, ui-monospace, Menlo, Monaco, monospace; font-size: 14px; font-style: normal; font-variant-ligatures: normal; font-variant-caps: normal; font-weight: 400; letter-spacing: normal; orphans: 2; text-align: start; text-indent: 0px; text-transform: none; widows: 2; word-spacing: 0px; -webkit-text-stroke-width: 0px; white-space: pre; background-color: rgb(255, 255, 255); text-decoration-thickness: initial; text-decoration-style: initial; text-decoration-color: initial;&quot;&gt;set&lt;/span&gt;&lt;span style=&quot;color: rgb(36, 36, 36); font-family: &amp;quot;Cascadia Mono&amp;quot;, Consolas, ui-monospace, Menlo, Monaco, monospace; font-size: 14px; font-style: normal; font-variant-ligatures: normal; font-variant-caps: normal; font-weight: 400; letter-spacing: normal; orphans: 2; text-align: start; text-indent: 0px; text-transform: none; widows: 2; word-spacing: 0px; -webkit-text-stroke-width: 0px; white-space: pre; background-color: rgb(255, 255, 255); text-decoration-thickness: initial; text-decoration-style: initial; text-decoration-color: initial; display: inline !important; float: none;&quot;&gt;&amp;nbsp;up&amp;nbsp;TRIGGER&amp;nbsp;eventfd&amp;nbsp;signaling&amp;nbsp;&lt;/span&gt;&lt;span class=&quot;hljs-keyword&quot; style=&quot;box-sizing: border-box; -webkit-font-smoothing: antialiased; color: rgb(79, 82, 178); font-family: &amp;quot;Cascadia Mono&amp;quot;, Consolas, ui-monospace, Menlo, Monaco, monospace; font-size: 14px; font-style: normal; font-variant-ligatures: normal; font-variant-caps: normal; font-weight: 400; letter-spacing: normal; orphans: 2; text-align: start; text-indent: 0px; text-transform: none; widows: 2; word-spacing: 0px; -webkit-text-stroke-width: 0px; white-space: pre; background-color: rgb(255, 255, 255); text-decoration-thickness: initial; text-decoration-style: initial; text-decoration-color: initial;&quot;&gt;for&lt;/span&gt;&lt;span style=&quot;color: rgb(36, 36, 36); font-family: &amp;quot;Cascadia Mono&amp;quot;, Consolas, ui-monospace, Menlo, Monaco, monospace; font-size: 14px; font-style: normal; font-variant-ligatures: normal; font-variant-caps: normal; font-weight: 400; letter-spacing: normal; orphans: 2; text-align: start; text-indent: 0px; text-transform: none; widows: 2; word-spacing: 0px; -webkit-text-stroke-width: 0px; white-space: pre; background-color: rgb(255, 255, 255); text-decoration-thickness: initial; text-decoration-style: initial; text-decoration-color: initial; display: inline !important; float: none;&quot;&gt;&amp;nbsp;interrupt&amp;nbsp;INTX-0:&amp;nbsp;VFIO_DEVICE_SET_IRQS&lt;/span&gt;&lt;br style=&quot;box-sizing: border-box; -webkit-font-smoothing: antialiased; color: rgb(36, 36, 36); font-family: &amp;quot;Cascadia Mono&amp;quot;, Consolas, ui-monospace, Menlo, Monaco, monospace; font-size: 14px; font-style: normal; font-variant-ligatures: normal; font-variant-caps: normal; font-weight: 400; letter-spacing: normal; orphans: 2; text-align: start; text-indent: 0px; text-transform: none; widows: 2; word-spacing: 0px; -webkit-text-stroke-width: 0px; white-space: pre; background-color: rgb(255, 255, 255); text-decoration-thickness: initial; text-decoration-style: initial; text-decoration-color: initial;&quot;&gt;&lt;span style=&quot;color: rgb(36, 36, 36); font-family: &amp;quot;Cascadia Mono&amp;quot;, Consolas, ui-monospace, Menlo, Monaco, monospace; font-size: 14px; font-style: normal; font-variant-ligatures: normal; font-variant-caps: normal; font-weight: 400; letter-spacing: normal; orphans: 2; text-align: start; text-indent: 0px; text-transform: none; widows: 2; word-spacing: 0px; -webkit-text-stroke-width: 0px; white-space: pre; background-color: rgb(255, 255, 255); text-decoration-thickness: initial; text-decoration-style: initial; text-decoration-color: initial; display: inline !important; float: none;&quot;&gt; failure:&amp;nbsp;No&amp;nbsp;such&amp;nbsp;device&lt;/span&gt;" id="-KUxn2SXB9C2YqueNw4e-10">
          <mxCell style="text;whiteSpace=wrap;html=1;" vertex="1" parent="1">
            <mxGeometry x="60" y="1350" width="560" height="120" as="geometry" />
          </mxCell>
        </UserObject>
        <mxCell id="-KUxn2SXB9C2YqueNw4e-11" value="Host:" style="text;html=1;whiteSpace=wrap;strokeColor=none;fillColor=none;align=left;verticalAlign=middle;rounded=0;" vertex="1" parent="1">
          <mxGeometry x="60" y="1470" width="690" height="20" as="geometry" />
        </mxCell>
        <mxCell id="-KUxn2SXB9C2YqueNw4e-12" value="&lt;span style=&quot;color: rgb(36, 36, 36); font-family: &amp;quot;Cascadia Mono&amp;quot;, Consolas, ui-monospace, Menlo, Monaco, monospace; font-size: 14px; font-style: normal; font-variant-ligatures: normal; font-variant-caps: normal; font-weight: 400; letter-spacing: normal; orphans: 2; text-align: start; text-indent: 0px; text-transform: none; widows: 2; word-spacing: 0px; -webkit-text-stroke-width: 0px; white-space: pre; background-color: rgb(255, 255, 255); text-decoration-thickness: initial; text-decoration-style: initial; text-decoration-color: initial; display: inline !important; float: none;&quot;&gt;[&amp;nbsp;&amp;nbsp;156.815483]&amp;nbsp;VFIO&amp;nbsp;-&amp;nbsp;User&amp;nbsp;Level&amp;nbsp;meta-driver&amp;nbsp;version:&amp;nbsp;0.3&lt;/span&gt;&lt;br style=&quot;box-sizing: border-box; -webkit-font-smoothing: antialiased; color: rgb(36, 36, 36); font-family: &amp;quot;Cascadia Mono&amp;quot;, Consolas, ui-monospace, Menlo, Monaco, monospace; font-size: 14px; font-style: normal; font-variant-ligatures: normal; font-variant-caps: normal; font-weight: 400; letter-spacing: normal; orphans: 2; text-align: start; text-indent: 0px; text-transform: none; widows: 2; word-spacing: 0px; -webkit-text-stroke-width: 0px; white-space: pre; background-color: rgb(255, 255, 255); text-decoration-thickness: initial; text-decoration-style: initial; text-decoration-color: initial;&quot;&gt;&lt;span style=&quot;color: rgb(36, 36, 36); font-family: &amp;quot;Cascadia Mono&amp;quot;, Consolas, ui-monospace, Menlo, Monaco, monospace; font-size: 14px; font-style: normal; font-variant-ligatures: normal; font-variant-caps: normal; font-weight: 400; letter-spacing: normal; orphans: 2; text-align: start; text-indent: 0px; text-transform: none; widows: 2; word-spacing: 0px; -webkit-text-stroke-width: 0px; white-space: pre; background-color: rgb(255, 255, 255); text-decoration-thickness: initial; text-decoration-style: initial; text-decoration-color: initial; display: inline !important; float: none;&quot;&gt;[&amp;nbsp;&amp;nbsp;293.785167]&amp;nbsp;hv_iommu_det_dev_from_guest:&amp;nbsp;hypercall&amp;nbsp;failed,&amp;nbsp;status&amp;nbsp;0xd&lt;/span&gt;&lt;br style=&quot;box-sizing: border-box; -webkit-font-smoothing: antialiased; color: rgb(36, 36, 36); font-family: &amp;quot;Cascadia Mono&amp;quot;, Consolas, ui-monospace, Menlo, Monaco, monospace; font-size: 14px; font-style: normal; font-variant-ligatures: normal; font-variant-caps: normal; font-weight: 400; letter-spacing: normal; orphans: 2; text-align: start; text-indent: 0px; text-transform: none; widows: 2; word-spacing: 0px; -webkit-text-stroke-width: 0px; white-space: pre; background-color: rgb(255, 255, 255); text-decoration-thickness: initial; text-decoration-style: initial; text-decoration-color: initial;&quot;&gt;&lt;span style=&quot;color: rgb(36, 36, 36); font-family: &amp;quot;Cascadia Mono&amp;quot;, Consolas, ui-monospace, Menlo, Monaco, monospace; font-size: 14px; font-style: normal; font-variant-ligatures: normal; font-variant-caps: normal; font-weight: 400; letter-spacing: normal; orphans: 2; text-align: start; text-indent: 0px; text-transform: none; widows: 2; word-spacing: 0px; -webkit-text-stroke-width: 0px; white-space: pre; background-color: rgb(255, 255, 255); text-decoration-thickness: initial; text-decoration-style: initial; text-decoration-color: initial; display: inline !important; float: none;&quot;&gt;[&amp;nbsp;&amp;nbsp;293.907915]&amp;nbsp;hv_iommu_domain_free:&amp;nbsp;hypercall&amp;nbsp;failed,&amp;nbsp;status&amp;nbsp;0x6&lt;/span&gt;" style="text;whiteSpace=wrap;html=1;" vertex="1" parent="1">
          <mxGeometry x="60" y="1490" width="560" height="70" as="geometry" />
        </mxCell>
        <mxCell id="-KUxn2SXB9C2YqueNw4e-13" value="Check: potential delta Azure/lab machine: Legacy IRQ support" style="text;html=1;whiteSpace=wrap;strokeColor=none;fillColor=none;align=center;verticalAlign=middle;rounded=0;" vertex="1" parent="1">
          <mxGeometry x="260" y="1570" width="350" height="30" as="geometry" />
        </mxCell>
      </root>
    </mxGraphModel>
  </diagram>
</mxfile>
